0
SECTION
2
HEADER
9
$INSUNITS
70
4
9
$ACADVER
1
AC1014
9
$HANDSEED
5
FFFF
0
ENDSEC
0
SECTION
2
TABLES
0
TABLE
2
VPORT
5
8
100
AcDbSymbolTable
0
ENDTAB
0
TABLE
2
LTYPE
5
5
100
AcDbSymbolTable
0
LTYPE
5
14
100
AcDbSymbolTableRecord
100
AcDbLinetypeTableRecord
2
BYBLOCK
70
0
0
LTYPE
5
15
100
AcDbSymbolTableRecord
100
AcDbLinetypeTableRecord
2
BYLAYER
70
0
0
ENDTAB
0
TABLE
2
LAYER
5
2
100
AcDbSymbolTable
70
2
0
LAYER
5
50
100
AcDbSymbolTableRecord
100
AcDbLayerTableRecord
2
0
70
0
6
CONTINUOUS
0
ENDTAB
0
TABLE
2
STYLE
5
3
100
AcDbSymbolTable
70
1
0
STYLE
5
11
100
AcDbSymbolTableRecord
100
AcDbTextStyleTableRecord
2
STANDARD
70
0
0
ENDTAB
0
TABLE
2
VIEW
5
6
100
AcDbSymbolTable
70
0
0
ENDTAB
0
TABLE
2
UCS
5
7
100
AcDbSymbolTable
70
0
0
ENDTAB
0
TABLE
2
APPID
5
9
100
AcDbSymbolTable
70
2
0
APPID
5
12
100
AcDbSymbolTableRecord
100
AcDbRegAppTableRecord
2
ACAD
70
0
0
ENDTAB
0
TABLE
2
DIMSTYLE
5
A
100
AcDbSymbolTable
70
1
0
ENDTAB
0
TABLE
2
BLOCK_RECORD
5
1
100
AcDbSymbolTable
70
1
0
BLOCK_RECORD
5
1F
100
AcDbSymbolTableRecord
100
AcDbBlockTableRecord
2
*MODEL_SPACE
0
BLOCK_RECORD
5
1B
100
AcDbSymbolTableRecord
100
AcDbBlockTableRecord
2
*PAPER_SPACE
0
ENDTAB
0
ENDSEC
0
SECTION
2
BLOCKS
0
BLOCK
5
20
100
AcDbEntity
100
AcDbBlockBegin
2
*MODEL_SPACE
0
ENDBLK
5
21
100
AcDbEntity
100
AcDbBlockEnd
0
BLOCK
5
1C
100
AcDbEntity
100
AcDbBlockBegin
2
*PAPER_SPACE
0
ENDBLK
5
1D
100
AcDbEntity
100
AcDbBlockEnd
0
ENDSEC
0
SECTION
2
ENTITIES
0
LWPOLYLINE
5
100
100
AcDbEntity
8
0
100
AcDbPolyline
90
4
70
1
43
0.0
10
-210
20
-209.99999999999997
10
0
20
-209.99999999999997
10
3.3306690738754696e-15
20
3.5527136788005009e-14
10
-210
20
2.1649348980190553e-14
0
CIRCLE
5
101
100
AcDbEntity
8
0
100
AcDbCircle
10
-199.99999999999969
20
-199.99999999999955
30
0
40
0.50000000000000711
210
0
220
0
230
1
0
CIRCLE
5
102
100
AcDbEntity
8
0
100
AcDbCircle
10
-159.99999999999969
20
-119.99999999999955
30
0
40
0.50000000000000711
210
0
220
0
230
1
0
CIRCLE
5
103
100
AcDbEntity
8
0
100
AcDbCircle
10
-139.99999999999969
20
-129.99999999999955
30
0
40
0.50000000000000711
210
0
220
0
230
1
0
CIRCLE
5
104
100
AcDbEntity
8
0
100
AcDbCircle
10
-189.99999999999969
20
-139.99999999999955
30
0
40
0.50000000000000711
210
0
220
0
230
1
0
CIRCLE
5
105
100
AcDbEntity
8
0
100
AcDbCircle
10
-149.99999999999969
20
-119.99999999999955
30
0
40
0.49999999999998934
210
0
220
0
230
1
0
CIRCLE
5
106
100
AcDbEntity
8
0
100
AcDbCircle
10
-149.99999999999969
20
-109.99999739229587
30
0
40
0.50000000000000711
210
0
220
0
230
1
0
CIRCLE
5
107
100
AcDbEntity
8
0
100
AcDbCircle
10
-149.99999999999969
20
-129.99999999999955
30
0
40
0.50000000000000711
210
0
220
0
230
1
0
CIRCLE
5
108
100
AcDbEntity
8
0
100
AcDbCircle
10
-189.99999999999969
20
-199.99999999999955
30
0
40
0.50000000000000711
210
0
220
0
230
1
0
CIRCLE
5
109
100
AcDbEntity
8
0
100
AcDbCircle
10
-189.99999999999969
20
-149.99999999999955
30
0
40
0.50000000000000711
210
0
220
0
230
1
0
CIRCLE
5
110
100
AcDbEntity
8
0
100
AcDbCircle
10
-189.99999999999969
20
-50.000000000000462
30
0
40
0.50000000000000711
210
0
220
0
230
1
0
CIRCLE
5
111
100
AcDbEntity
8
0
100
AcDbCircle
10
-189.99999999999969
20
-170.00000260770321
30
0
40
0.50000000000000711
210
0
220
0
230
1
0
CIRCLE
5
112
100
AcDbEntity
8
0
100
AcDbCircle
10
-189.99999999999969
20
-119.99999999999955
30
0
40
0.50000000000000711
210
0
220
0
230
1
0
CIRCLE
5
113
100
AcDbEntity
8
0
100
AcDbCircle
10
-189.99999999999969
20
-129.99999999999955
30
0
40
0.50000000000000711
210
0
220
0
230
1
0
CIRCLE
5
114
100
AcDbEntity
8
0
100
AcDbCircle
10
-189.99999999999969
20
-60.000000000000462
30
0
40
0.50000000000000711
210
0
220
0
230
1
0
CIRCLE
5
115
100
AcDbEntity
8
0
100
AcDbCircle
10
-169.99999999999969
20
-129.99999999999955
30
0
40
0.50000000000000711
210
0
220
0
230
1
0
CIRCLE
5
116
100
AcDbEntity
8
0
100
AcDbCircle
10
-149.99999999999969
20
-39.999997392296791
30
0
40
0.50000000000000711
210
0
220
0
230
1
0
CIRCLE
5
117
100
AcDbEntity
8
0
100
AcDbCircle
10
-179.99999999999969
20
-119.99999999999955
30
0
40
0.50000000000000711
210
0
220
0
230
1
0
CIRCLE
5
118
100
AcDbEntity
8
0
100
AcDbCircle
10
-179.99999999999969
20
-39.999997392296791
30
0
40
0.50000000000000711
210
0
220
0
230
1
0
CIRCLE
5
119
100
AcDbEntity
8
0
100
AcDbCircle
10
-189.99999999999969
20
-159.99999999999955
30
0
40
0.50000000000000711
210
0
220
0
230
1
0
CIRCLE
5
120
100
AcDbEntity
8
0
100
AcDbCircle
10
-179.99999999999969
20
-80.000000000000455
30
0
40
0.50000000000000711
210
0
220
0
230
1
0
CIRCLE
5
121
100
AcDbEntity
8
0
100
AcDbCircle
10
-139.99999999999969
20
-149.99999999999955
30
0
40
0.50000000000000711
210
0
220
0
230
1
0
CIRCLE
5
122
100
AcDbEntity
8
0
100
AcDbCircle
10
-159.99999999999969
20
-109.99999739229587
30
0
40
0.50000000000000711
210
0
220
0
230
1
0
CIRCLE
5
123
100
AcDbEntity
8
0
100
AcDbCircle
10
-169.99999999999969
20
-149.99999999999955
30
0
40
0.50000000000000711
210
0
220
0
230
1
0
CIRCLE
5
124
100
AcDbEntity
8
0
100
AcDbCircle
10
-189.99999999999969
20
-80.000000000000455
30
0
40
0.50000000000000711
210
0
220
0
230
1
0
CIRCLE
5
125
100
AcDbEntity
8
0
100
AcDbCircle
10
-189.99999999999969
20
-189.99999999999955
30
0
40
0.50000000000000711
210
0
220
0
230
1
0
CIRCLE
5
126
100
AcDbEntity
8
0
100
AcDbCircle
10
-139.99999999999969
20
-109.99999739229587
30
0
40
0.50000000000000711
210
0
220
0
230
1
0
CIRCLE
5
127
100
AcDbEntity
8
0
100
AcDbCircle
10
-139.99999999999969
20
-119.99999999999955
30
0
40
0.49999999999998934
210
0
220
0
230
1
0
CIRCLE
5
128
100
AcDbEntity
8
0
100
AcDbCircle
10
-169.99999999999969
20
-109.99999739229587
30
0
40
0.50000000000000711
210
0
220
0
230
1
0
CIRCLE
5
129
100
AcDbEntity
8
0
100
AcDbCircle
10
-159.99999999999969
20
-149.99999999999955
30
0
40
0.50000000000000711
210
0
220
0
230
1
0
CIRCLE
5
130
100
AcDbEntity
8
0
100
AcDbCircle
10
-189.99999999999969
20
-90.000000000000455
30
0
40
0.50000000000000711
210
0
220
0
230
1
0
CIRCLE
5
131
100
AcDbEntity
8
0
100
AcDbCircle
10
-189.99999999999969
20
-100.00000260770413
30
0
40
0.50000000000000711
210
0
220
0
230
1
0
CIRCLE
5
132
100
AcDbEntity
8
0
100
AcDbCircle
10
-179.99999999999969
20
-109.99999739229587
30
0
40
0.50000000000000711
210
0
220
0
230
1
0
CIRCLE
5
133
100
AcDbEntity
8
0
100
AcDbCircle
10
-199.99999999999969
20
-70.000000000000455
30
0
40
0.50000000000000711
210
0
220
0
230
1
0
CIRCLE
5
134
100
AcDbEntity
8
0
100
AcDbCircle
10
-169.99999999999969
20
-80.000000000000455
30
0
40
0.50000000000000711
210
0
220
0
230
1
0
CIRCLE
5
135
100
AcDbEntity
8
0
100
AcDbCircle
10
-139.99999999999969
20
-39.999997392296791
30
0
40
0.50000000000000711
210
0
220
0
230
1
0
CIRCLE
5
136
100
AcDbEntity
8
0
100
AcDbCircle
10
-129.99999999999969
20
-170.00000260770321
30
0
40
0.50000000000000711
210
0
220
0
230
1
0
CIRCLE
5
137
100
AcDbEntity
8
0
100
AcDbCircle
10
-149.99999999999969
20
-189.99999999999955
30
0
40
0.50000000000000711
210
0
220
0
230
1
0
CIRCLE
5
138
100
AcDbEntity
8
0
100
AcDbCircle
10
-169.99999999999969
20
-30.000000000000462
30
0
40
0.50000000000000711
210
0
220
0
230
1
0
CIRCLE
5
139
100
AcDbEntity
8
0
100
AcDbCircle
10
-129.99999999999969
20
-60.000000000000462
30
0
40
0.50000000000000711
210
0
220
0
230
1
0
CIRCLE
5
140
100
AcDbEntity
8
0
100
AcDbCircle
10
-199.99999999999969
20
-159.99999999999955
30
0
40
0.50000000000000711
210
0
220
0
230
1
0
CIRCLE
5
141
100
AcDbEntity
8
0
100
AcDbCircle
10
-199.99999999999969
20
-109.99999739229587
30
0
40
0.50000000000000711
210
0
220
0
230
1
0
CIRCLE
5
142
100
AcDbEntity
8
0
100
AcDbCircle
10
-159.99999999999969
20
-139.99999999999955
30
0
40
0.50000000000000711
210
0
220
0
230
1
0
CIRCLE
5
143
100
AcDbEntity
8
0
100
AcDbCircle
10
-199.99999999999969
20
-90.000000000000455
30
0
40
0.50000000000000711
210
0
220
0
230
1
0
CIRCLE
5
144
100
AcDbEntity
8
0
100
AcDbCircle
10
-129.99999999999969
20
-70.000000000000455
30
0
40
0.50000000000000711
210
0
220
0
230
1
0
CIRCLE
5
145
100
AcDbEntity
8
0
100
AcDbCircle
10
-149.99999999999969
20
-170.00000260770321
30
0
40
0.50000000000000711
210
0
220
0
230
1
0
CIRCLE
5
146
100
AcDbEntity
8
0
100
AcDbCircle
10
-179.99999999999969
20
-70.000000000000455
30
0
40
0.50000000000000711
210
0
220
0
230
1
0
CIRCLE
5
147
100
AcDbEntity
8
0
100
AcDbCircle
10
-119.99999999999969
20
-30.000000000000462
30
0
40
0.49999999999998934
210
0
220
0
230
1
0
CIRCLE
5
148
100
AcDbEntity
8
0
100
AcDbCircle
10
-129.99999999999969
20
-50.000000000000462
30
0
40
0.49999999999998934
210
0
220
0
230
1
0
CIRCLE
5
149
100
AcDbEntity
8
0
100
AcDbCircle
10
-139.99999999999969
20
-139.99999999999955
30
0
40
0.50000000000000711
210
0
220
0
230
1
0
CIRCLE
5
150
100
AcDbEntity
8
0
100
AcDbCircle
10
-159.99999999999969
20
-50.000000000000462
30
0
40
0.50000000000000711
210
0
220
0
230
1
0
CIRCLE
5
151
100
AcDbEntity
8
0
100
AcDbCircle
10
-159.99999999999969
20
-30.000000000000462
30
0
40
0.50000000000000711
210
0
220
0
230
1
0
CIRCLE
5
152
100
AcDbEntity
8
0
100
AcDbCircle
10
-199.99999999999969
20
-189.99999999999955
30
0
40
0.50000000000000711
210
0
220
0
230
1
0
CIRCLE
5
153
100
AcDbEntity
8
0
100
AcDbCircle
10
-199.99999999999969
20
-179.99999999999955
30
0
40
0.50000000000000711
210
0
220
0
230
1
0
CIRCLE
5
154
100
AcDbEntity
8
0
100
AcDbCircle
10
-199.99999999999969
20
-170.00000260770321
30
0
40
0.50000000000000711
210
0
220
0
230
1
0
CIRCLE
5
155
100
AcDbEntity
8
0
100
AcDbCircle
10
-169.99999999999969
20
-119.99999999999955
30
0
40
0.50000000000000711
210
0
220
0
230
1
0
CIRCLE
5
156
100
AcDbEntity
8
0
100
AcDbCircle
10
-199.99999999999969
20
-80.000000000000455
30
0
40
0.50000000000000711
210
0
220
0
230
1
0
CIRCLE
5
157
100
AcDbEntity
8
0
100
AcDbCircle
10
-199.99999999999969
20
-60.000000000000462
30
0
40
0.50000000000000711
210
0
220
0
230
1
0
CIRCLE
5
158
100
AcDbEntity
8
0
100
AcDbCircle
10
-149.99999999999969
20
-30.000000000000462
30
0
40
0.49999999999998934
210
0
220
0
230
1
0
CIRCLE
5
159
100
AcDbEntity
8
0
100
AcDbCircle
10
-119.99999999999969
20
-80.000000000000455
30
0
40
0.50000000000000711
210
0
220
0
230
1
0
CIRCLE
5
160
100
AcDbEntity
8
0
100
AcDbCircle
10
-129.99999999999969
20
-109.99999739229587
30
0
40
0.50000000000000711
210
0
220
0
230
1
0
CIRCLE
5
161
100
AcDbEntity
8
0
100
AcDbCircle
10
-139.99999999999969
20
-80.000000000000455
30
0
40
0.50000000000000711
210
0
220
0
230
1
0
CIRCLE
5
162
100
AcDbEntity
8
0
100
AcDbCircle
10
-119.99999999999969
20
-60.000000000000462
30
0
40
0.50000000000000711
210
0
220
0
230
1
0
CIRCLE
5
163
100
AcDbEntity
8
0
100
AcDbCircle
10
-169.99999999999969
20
-100.00000260770413
30
0
40
0.50000000000000711
210
0
220
0
230
1
0
CIRCLE
5
164
100
AcDbEntity
8
0
100
AcDbCircle
10
-119.99999999999969
20
-119.99999999999955
30
0
40
0.49999999999998934
210
0
220
0
230
1
0
CIRCLE
5
165
100
AcDbEntity
8
0
100
AcDbCircle
10
-139.99999999999969
20
-30.000000000000462
30
0
40
0.49999999999998934
210
0
220
0
230
1
0
CIRCLE
5
166
100
AcDbEntity
8
0
100
AcDbCircle
10
-169.99999999999969
20
-70.000000000000455
30
0
40
0.50000000000000711
210
0
220
0
230
1
0
CIRCLE
5
167
100
AcDbEntity
8
0
100
AcDbCircle
10
-199.99999999999969
20
-50.000000000000462
30
0
40
0.50000000000000711
210
0
220
0
230
1
0
CIRCLE
5
168
100
AcDbEntity
8
0
100
AcDbCircle
10
-199.99999999999969
20
-30.000000000000462
30
0
40
0.50000000000000711
210
0
220
0
230
1
0
CIRCLE
5
169
100
AcDbEntity
8
0
100
AcDbCircle
10
-159.99999999999969
20
-39.999997392296791
30
0
40
0.50000000000000711
210
0
220
0
230
1
0
CIRCLE
5
170
100
AcDbEntity
8
0
100
AcDbCircle
10
-129.99999999999969
20
-179.99999999999955
30
0
40
0.49999999999998934
210
0
220
0
230
1
0
CIRCLE
5
171
100
AcDbEntity
8
0
100
AcDbCircle
10
-149.99999999999969
20
-70.000000000000455
30
0
40
0.50000000000000711
210
0
220
0
230
1
0
CIRCLE
5
172
100
AcDbEntity
8
0
100
AcDbCircle
10
-199.99999999999969
20
-119.99999999999955
30
0
40
0.50000000000000711
210
0
220
0
230
1
0
CIRCLE
5
173
100
AcDbEntity
8
0
100
AcDbCircle
10
-169.99999999999969
20
-39.999997392296791
30
0
40
0.50000000000000711
210
0
220
0
230
1
0
CIRCLE
5
174
100
AcDbEntity
8
0
100
AcDbCircle
10
-149.99999999999969
20
-179.99999999999955
30
0
40
0.49999999999998934
210
0
220
0
230
1
0
CIRCLE
5
175
100
AcDbEntity
8
0
100
AcDbCircle
10
-109.99999999999969
20
-109.99999739229587
30
0
40
0.50000000000000711
210
0
220
0
230
1
0
CIRCLE
5
176
100
AcDbEntity
8
0
100
AcDbCircle
10
-119.99999999999969
20
-70.000000000000455
30
0
40
0.50000000000000711
210
0
220
0
230
1
0
CIRCLE
5
177
100
AcDbEntity
8
0
100
AcDbCircle
10
-179.99999999999969
20
-50.000000000000462
30
0
40
0.50000000000000711
210
0
220
0
230
1
0
CIRCLE
5
178
100
AcDbEntity
8
0
100
AcDbCircle
10
-149.99999999999969
20
-139.99999999999955
30
0
40
0.50000000000000711
210
0
220
0
230
1
0
CIRCLE
5
179
100
AcDbEntity
8
0
100
AcDbCircle
10
-149.99999999999969
20
-50.000000000000462
30
0
40
0.49999999999998934
210
0
220
0
230
1
0
CIRCLE
5
180
100
AcDbEntity
8
0
100
AcDbCircle
10
-119.99999999999969
20
-90.000000000000455
30
0
40
0.49999999999998934
210
0
220
0
230
1
0
CIRCLE
5
181
100
AcDbEntity
8
0
100
AcDbCircle
10
-139.99999999999969
20
-90.000000000000455
30
0
40
0.49999999999998934
210
0
220
0
230
1
0
CIRCLE
5
182
100
AcDbEntity
8
0
100
AcDbCircle
10
-169.99999999999969
20
-50.000000000000462
30
0
40
0.50000000000000711
210
0
220
0
230
1
0
CIRCLE
5
183
100
AcDbEntity
8
0
100
AcDbCircle
10
-159.99999999999969
20
-100.00000260770413
30
0
40
0.50000000000000711
210
0
220
0
230
1
0
CIRCLE
5
184
100
AcDbEntity
8
0
100
AcDbCircle
10
-169.99999999999969
20
-179.99999999999955
30
0
40
0.50000000000000711
210
0
220
0
230
1
0
CIRCLE
5
185
100
AcDbEntity
8
0
100
AcDbCircle
10
-149.99999999999969
20
-90.000000000000455
30
0
40
0.49999999999998934
210
0
220
0
230
1
0
CIRCLE
5
186
100
AcDbEntity
8
0
100
AcDbCircle
10
-199.99999999999969
20
-39.999997392296791
30
0
40
0.50000000000000711
210
0
220
0
230
1
0
CIRCLE
5
187
100
AcDbEntity
8
0
100
AcDbCircle
10
-139.99999999999969
20
-70.000000000000455
30
0
40
0.50000000000000711
210
0
220
0
230
1
0
CIRCLE
5
188
100
AcDbEntity
8
0
100
AcDbCircle
10
-109.99999999999969
20
-189.99999999999955
30
0
40
0.50000000000000711
210
0
220
0
230
1
0
CIRCLE
5
189
100
AcDbEntity
8
0
100
AcDbCircle
10
-119.99999999999969
20
-139.99999999999955
30
0
40
0.50000000000000711
210
0
220
0
230
1
0
CIRCLE
5
190
100
AcDbEntity
8
0
100
AcDbCircle
10
-139.99999999999969
20
-60.000000000000462
30
0
40
0.50000000000000711
210
0
220
0
230
1
0
CIRCLE
5
191
100
AcDbEntity
8
0
100
AcDbCircle
10
-129.99999999999969
20
-149.99999999999955
30
0
40
0.50000000000000711
210
0
220
0
230
1
0
CIRCLE
5
192
100
AcDbEntity
8
0
100
AcDbCircle
10
-149.99999999999969
20
-80.000000000000455
30
0
40
0.50000000000000711
210
0
220
0
230
1
0
CIRCLE
5
193
100
AcDbEntity
8
0
100
AcDbCircle
10
-139.99999999999969
20
-50.000000000000462
30
0
40
0.49999999999998934
210
0
220
0
230
1
0
CIRCLE
5
194
100
AcDbEntity
8
0
100
AcDbCircle
10
-159.99999999999969
20
-199.99999999999955
30
0
40
0.50000000000000711
210
0
220
0
230
1
0
CIRCLE
5
195
100
AcDbEntity
8
0
100
AcDbCircle
10
-109.99999999999969
20
-119.99999999999955
30
0
40
0.49999999999998934
210
0
220
0
230
1
0
CIRCLE
5
196
100
AcDbEntity
8
0
100
AcDbCircle
10
-109.99999999999969
20
-90.000000000000455
30
0
40
0.49999999999998934
210
0
220
0
230
1
0
CIRCLE
5
197
100
AcDbEntity
8
0
100
AcDbCircle
10
-109.99999999999969
20
-149.99999999999955
30
0
40
0.50000000000000711
210
0
220
0
230
1
0
CIRCLE
5
198
100
AcDbEntity
8
0
100
AcDbCircle
10
-119.99999999999969
20
-39.999997392296791
30
0
40
0.50000000000000711
210
0
220
0
230
1
0
CIRCLE
5
199
100
AcDbEntity
8
0
100
AcDbCircle
10
-129.99999999999969
20
-189.99999999999955
30
0
40
0.50000000000000711
210
0
220
0
230
1
0
CIRCLE
5
200
100
AcDbEntity
8
0
100
AcDbCircle
10
-149.99999999999969
20
-60.000000000000462
30
0
40
0.50000000000000711
210
0
220
0
230
1
0
CIRCLE
5
201
100
AcDbEntity
8
0
100
AcDbCircle
10
-109.99999999999969
20
-80.000000000000455
30
0
40
0.50000000000000711
210
0
220
0
230
1
0
CIRCLE
5
202
100
AcDbEntity
8
0
100
AcDbCircle
10
-119.99999999999969
20
-170.00000260770321
30
0
40
0.50000000000000711
210
0
220
0
230
1
0
CIRCLE
5
203
100
AcDbEntity
8
0
100
AcDbCircle
10
-159.99999999999969
20
-179.99999999999955
30
0
40
0.50000000000000711
210
0
220
0
230
1
0
CIRCLE
5
204
100
AcDbEntity
8
0
100
AcDbCircle
10
-109.99999999999969
20
-70.000000000000455
30
0
40
0.50000000000000711
210
0
220
0
230
1
0
CIRCLE
5
205
100
AcDbEntity
8
0
100
AcDbCircle
10
-139.99999999999969
20
-100.00000260770413
30
0
40
0.50000000000000711
210
0
220
0
230
1
0
CIRCLE
5
206
100
AcDbEntity
8
0
100
AcDbCircle
10
-129.99999999999969
20
-80.000000000000455
30
0
40
0.50000000000000711
210
0
220
0
230
1
0
CIRCLE
5
207
100
AcDbEntity
8
0
100
AcDbCircle
10
-159.99999999999969
20
-170.00000260770321
30
0
40
0.50000000000000711
210
0
220
0
230
1
0
CIRCLE
5
208
100
AcDbEntity
8
0
100
AcDbCircle
10
-169.99999999999969
20
-60.000000000000462
30
0
40
0.50000000000000711
210
0
220
0
230
1
0
CIRCLE
5
209
100
AcDbEntity
8
0
100
AcDbCircle
10
-159.99999999999969
20
-189.99999999999955
30
0
40
0.50000000000000711
210
0
220
0
230
1
0
CIRCLE
5
210
100
AcDbEntity
8
0
100
AcDbCircle
10
-139.99999999999969
20
-179.99999999999955
30
0
40
0.49999999999998934
210
0
220
0
230
1
0
CIRCLE
5
211
100
AcDbEntity
8
0
100
AcDbCircle
10
-199.99999999999969
20
-139.99999999999955
30
0
40
0.50000000000000711
210
0
220
0
230
1
0
CIRCLE
5
212
100
AcDbEntity
8
0
100
AcDbCircle
10
-159.99999999999969
20
-80.000000000000455
30
0
40
0.50000000000000711
210
0
220
0
230
1
0
CIRCLE
5
213
100
AcDbEntity
8
0
100
AcDbCircle
10
-119.99999999999969
20
-100.00000260770413
30
0
40
0.50000000000000711
210
0
220
0
230
1
0
CIRCLE
5
214
100
AcDbEntity
8
0
100
AcDbCircle
10
-129.99999999999969
20
-100.00000260770413
30
0
40
0.50000000000000711
210
0
220
0
230
1
0
CIRCLE
5
215
100
AcDbEntity
8
0
100
AcDbCircle
10
-179.99999999999969
20
-90.000000000000455
30
0
40
0.50000000000000711
210
0
220
0
230
1
0
CIRCLE
5
216
100
AcDbEntity
8
0
100
AcDbCircle
10
-109.99999999999969
20
-100.00000260770413
30
0
40
0.50000000000000711
210
0
220
0
230
1
0
CIRCLE
5
217
100
AcDbEntity
8
0
100
AcDbCircle
10
-159.99999999999969
20
-70.000000000000455
30
0
40
0.50000000000000711
210
0
220
0
230
1
0
CIRCLE
5
218
100
AcDbEntity
8
0
100
AcDbCircle
10
-159.99999999999969
20
-159.99999999999955
30
0
40
0.50000000000000711
210
0
220
0
230
1
0
CIRCLE
5
219
100
AcDbEntity
8
0
100
AcDbCircle
10
-169.99999999999969
20
-189.99999999999955
30
0
40
0.50000000000000711
210
0
220
0
230
1
0
CIRCLE
5
220
100
AcDbEntity
8
0
100
AcDbCircle
10
-149.99999999999969
20
-159.99999999999955
30
0
40
0.49999999999998934
210
0
220
0
230
1
0
CIRCLE
5
221
100
AcDbEntity
8
0
100
AcDbCircle
10
-199.99999999999969
20
-149.99999999999955
30
0
40
0.50000000000000711
210
0
220
0
230
1
0
CIRCLE
5
222
100
AcDbEntity
8
0
100
AcDbCircle
10
-179.99999999999969
20
-30.000000000000462
30
0
40
0.50000000000000711
210
0
220
0
230
1
0
CIRCLE
5
223
100
AcDbEntity
8
0
100
AcDbCircle
10
-199.99999999999969
20
-100.00000260770413
30
0
40
0.50000000000000711
210
0
220
0
230
1
0
CIRCLE
5
224
100
AcDbEntity
8
0
100
AcDbCircle
10
-109.99999999999969
20
-129.99999999999955
30
0
40
0.50000000000000711
210
0
220
0
230
1
0
CIRCLE
5
225
100
AcDbEntity
8
0
100
AcDbCircle
10
-179.99999999999969
20
-179.99999999999955
30
0
40
0.50000000000000711
210
0
220
0
230
1
0
CIRCLE
5
226
100
AcDbEntity
8
0
100
AcDbCircle
10
-129.99999999999969
20
-139.99999999999955
30
0
40
0.50000000000000711
210
0
220
0
230
1
0
CIRCLE
5
227
100
AcDbEntity
8
0
100
AcDbCircle
10
-169.99999999999969
20
-90.000000000000455
30
0
40
0.50000000000000711
210
0
220
0
230
1
0
CIRCLE
5
228
100
AcDbEntity
8
0
100
AcDbCircle
10
-109.99999999999969
20
-39.999997392296791
30
0
40
0.50000000000000711
210
0
220
0
230
1
0
CIRCLE
5
229
100
AcDbEntity
8
0
100
AcDbCircle
10
-199.99999999999969
20
-20.000000000000462
30
0
40
0.50000000000000711
210
0
220
0
230
1
0
CIRCLE
5
230
100
AcDbEntity
8
0
100
AcDbCircle
10
-20.000000000000313
20
-199.99999999999955
30
0
40
0.50000000000000711
210
0
220
0
230
1
0
CIRCLE
5
231
100
AcDbEntity
8
0
100
AcDbCircle
10
-10.000000000000311
20
-100.00000260770413
30
0
40
0.50000000000000044
210
0
220
0
230
1
0
CIRCLE
5
232
100
AcDbEntity
8
0
100
AcDbCircle
10
-10.000000000000311
20
-90.000000000000455
30
0
40
0.49999999999999822
210
0
220
0
230
1
0
CIRCLE
5
233
100
AcDbEntity
8
0
100
AcDbCircle
10
-10.000000000000311
20
-80.000000000000455
30
0
40
0.50000000000000044
210
0
220
0
230
1
0
CIRCLE
5
234
100
AcDbEntity
8
0
100
AcDbCircle
10
-10.000000000000311
20
-70.000000000000455
30
0
40
0.50000000000000933
210
0
220
0
230
1
0
CIRCLE
5
235
100
AcDbEntity
8
0
100
AcDbCircle
10
-10.000000000000311
20
-60.000000000000462
30
0
40
0.50000000000000044
210
0
220
0
230
1
0
CIRCLE
5
236
100
AcDbEntity
8
0
100
AcDbCircle
10
-10.000000000000311
20
-50.000000000000462
30
0
40
0.49999999999999822
210
0
220
0
230
1
0
CIRCLE
5
237
100
AcDbEntity
8
0
100
AcDbCircle
10
-10.000000000000311
20
-39.999997392296791
30
0
40
0.50000000000000044
210
0
220
0
230
1
0
CIRCLE
5
238
100
AcDbEntity
8
0
100
AcDbCircle
10
-10.000000000000311
20
-30.000000000000462
30
0
40
0.49999999999999822
210
0
220
0
230
1
0
CIRCLE
5
239
100
AcDbEntity
8
0
100
AcDbCircle
10
-10.000000000000311
20
-20.000000000000462
30
0
40
0.50000000000000044
210
0
220
0
230
1
0
CIRCLE
5
240
100
AcDbEntity
8
0
100
AcDbCircle
10
-10.000000000000311
20
-10.000000000000462
30
0
40
0.50000000000000933
210
0
220
0
230
1
0
CIRCLE
5
241
100
AcDbEntity
8
0
100
AcDbCircle
10
-10.000000000000311
20
-129.99999999999955
30
0
40
0.50000000000000044
210
0
220
0
230
1
0
CIRCLE
5
242
100
AcDbEntity
8
0
100
AcDbCircle
10
-10.000000000000311
20
-119.99999999999955
30
0
40
0.49999999999999822
210
0
220
0
230
1
0
CIRCLE
5
243
100
AcDbEntity
8
0
100
AcDbCircle
10
-10.000000000000311
20
-109.99999739229587
30
0
40
0.50000000000000044
210
0
220
0
230
1
0
CIRCLE
5
244
100
AcDbEntity
8
0
100
AcDbCircle
10
-10.000000000000311
20
-170.00000260770321
30
0
40
0.50000000000000044
210
0
220
0
230
1
0
CIRCLE
5
245
100
AcDbEntity
8
0
100
AcDbCircle
10
-10.000000000000311
20
-139.99999999999955
30
0
40
0.50000000000000933
210
0
220
0
230
1
0
CIRCLE
5
246
100
AcDbEntity
8
0
100
AcDbCircle
10
-10.000000000000311
20
-149.99999999999955
30
0
40
0.50000000000000044
210
0
220
0
230
1
0
CIRCLE
5
247
100
AcDbEntity
8
0
100
AcDbCircle
10
-10.000000000000311
20
-159.99999999999955
30
0
40
0.49999999999999822
210
0
220
0
230
1
0
CIRCLE
5
248
100
AcDbEntity
8
0
100
AcDbCircle
10
-10.000000000000311
20
-179.99999999999955
30
0
40
0.49999999999999822
210
0
220
0
230
1
0
CIRCLE
5
249
100
AcDbEntity
8
0
100
AcDbCircle
10
-10.000000000000311
20
-189.99999999999955
30
0
40
0.50000000000000044
210
0
220
0
230
1
0
CIRCLE
5
250
100
AcDbEntity
8
0
100
AcDbCircle
10
-10.000000000000311
20
-199.99999999999955
30
0
40
0.50000000000000933
210
0
220
0
230
1
0
CIRCLE
5
251
100
AcDbEntity
8
0
100
AcDbCircle
10
-129.99999999999969
20
-20.000000000000462
30
0
40
0.50000000000000711
210
0
220
0
230
1
0
CIRCLE
5
252
100
AcDbEntity
8
0
100
AcDbCircle
10
-119.99999999999969
20
-20.000000000000462
30
0
40
0.50000000000000711
210
0
220
0
230
1
0
CIRCLE
5
253
100
AcDbEntity
8
0
100
AcDbCircle
10
-139.99999999999969
20
-10.000000000000462
30
0
40
0.50000000000000711
210
0
220
0
230
1
0
CIRCLE
5
254
100
AcDbEntity
8
0
100
AcDbCircle
10
-169.99999999999969
20
-20.000000000000462
30
0
40
0.50000000000000711
210
0
220
0
230
1
0
CIRCLE
5
255
100
AcDbEntity
8
0
100
AcDbCircle
10
-159.99999999999969
20
-20.000000000000462
30
0
40
0.50000000000000711
210
0
220
0
230
1
0
CIRCLE
5
256
100
AcDbEntity
8
0
100
AcDbCircle
10
-109.99999999999969
20
-20.000000000000462
30
0
40
0.50000000000000711
210
0
220
0
230
1
0
CIRCLE
5
257
100
AcDbEntity
8
0
100
AcDbCircle
10
-179.99999999999969
20
-20.000000000000462
30
0
40
0.50000000000000711
210
0
220
0
230
1
0
CIRCLE
5
258
100
AcDbEntity
8
0
100
AcDbCircle
10
-129.99999999999969
20
-10.000000000000462
30
0
40
0.50000000000000711
210
0
220
0
230
1
0
CIRCLE
5
259
100
AcDbEntity
8
0
100
AcDbCircle
10
-179.99999999999969
20
-10.000000000000462
30
0
40
0.50000000000000711
210
0
220
0
230
1
0
CIRCLE
5
260
100
AcDbEntity
8
0
100
AcDbCircle
10
-119.99999999999969
20
-10.000000000000462
30
0
40
0.50000000000000711
210
0
220
0
230
1
0
CIRCLE
5
261
100
AcDbEntity
8
0
100
AcDbCircle
10
-149.99999999999969
20
-20.000000000000462
30
0
40
0.50000000000000711
210
0
220
0
230
1
0
CIRCLE
5
262
100
AcDbEntity
8
0
100
AcDbCircle
10
-149.99999999999969
20
-10.000000000000462
30
0
40
0.50000000000000711
210
0
220
0
230
1
0
CIRCLE
5
263
100
AcDbEntity
8
0
100
AcDbCircle
10
-199.99999999999969
20
-10.000000000000462
30
0
40
0.50000000000000711
210
0
220
0
230
1
0
CIRCLE
5
264
100
AcDbEntity
8
0
100
AcDbCircle
10
-159.99999999999969
20
-10.000000000000462
30
0
40
0.50000000000000711
210
0
220
0
230
1
0
CIRCLE
5
265
100
AcDbEntity
8
0
100
AcDbCircle
10
-169.99999999999969
20
-10.000000000000462
30
0
40
0.50000000000000711
210
0
220
0
230
1
0
CIRCLE
5
266
100
AcDbEntity
8
0
100
AcDbCircle
10
-189.99999999999969
20
-20.000000000000462
30
0
40
0.50000000000000711
210
0
220
0
230
1
0
CIRCLE
5
267
100
AcDbEntity
8
0
100
AcDbCircle
10
-139.99999999999969
20
-20.000000000000462
30
0
40
0.50000000000000711
210
0
220
0
230
1
0
CIRCLE
5
268
100
AcDbEntity
8
0
100
AcDbCircle
10
-189.99999999999969
20
-10.000000000000462
30
0
40
0.50000000000000711
210
0
220
0
230
1
0
CIRCLE
5
269
100
AcDbEntity
8
0
100
AcDbCircle
10
-109.99999999999969
20
-10.000000000000462
30
0
40
0.50000000000000711
210
0
220
0
230
1
0
CIRCLE
5
270
100
AcDbEntity
8
0
100
AcDbCircle
10
-159.99999999999969
20
-129.99999999999955
30
0
40
0.50000000000000711
210
0
220
0
230
1
0
CIRCLE
5
271
100
AcDbEntity
8
0
100
AcDbCircle
10
-20.000000000000313
20
-189.99999999999955
30
0
40
0.49999999999999822
210
0
220
0
230
1
0
CIRCLE
5
272
100
AcDbEntity
8
0
100
AcDbCircle
10
-20.000000000000313
20
-179.99999999999955
30
0
40
0.49999999999999822
210
0
220
0
230
1
0
CIRCLE
5
273
100
AcDbEntity
8
0
100
AcDbCircle
10
-20.000000000000313
20
-170.00000260770321
30
0
40
0.50000000000000266
210
0
220
0
230
1
0
CIRCLE
5
274
100
AcDbEntity
8
0
100
AcDbCircle
10
-20.000000000000313
20
-159.99999999999955
30
0
40
0.49999999999999822
210
0
220
0
230
1
0
CIRCLE
5
275
100
AcDbEntity
8
0
100
AcDbCircle
10
-20.000000000000313
20
-149.99999999999955
30
0
40
0.49999999999999822
210
0
220
0
230
1
0
CIRCLE
5
276
100
AcDbEntity
8
0
100
AcDbCircle
10
-20.000000000000313
20
-139.99999999999955
30
0
40
0.50000000000000711
210
0
220
0
230
1
0
CIRCLE
5
277
100
AcDbEntity
8
0
100
AcDbCircle
10
-20.000000000000313
20
-129.99999999999955
30
0
40
0.49999999999999822
210
0
220
0
230
1
0
CIRCLE
5
278
100
AcDbEntity
8
0
100
AcDbCircle
10
-20.000000000000313
20
-119.99999999999955
30
0
40
0.49999999999999822
210
0
220
0
230
1
0
CIRCLE
5
279
100
AcDbEntity
8
0
100
AcDbCircle
10
-20.000000000000313
20
-109.99999739229587
30
0
40
0.50000000000000266
210
0
220
0
230
1
0
CIRCLE
5
280
100
AcDbEntity
8
0
100
AcDbCircle
10
-20.000000000000313
20
-100.00000260770413
30
0
40
0.50000000000000266
210
0
220
0
230
1
0
CIRCLE
5
281
100
AcDbEntity
8
0
100
AcDbCircle
10
-20.000000000000313
20
-90.000000000000455
30
0
40
0.49999999999999822
210
0
220
0
230
1
0
CIRCLE
5
282
100
AcDbEntity
8
0
100
AcDbCircle
10
-20.000000000000313
20
-80.000000000000455
30
0
40
0.49999999999999822
210
0
220
0
230
1
0
CIRCLE
5
283
100
AcDbEntity
8
0
100
AcDbCircle
10
-20.000000000000313
20
-70.000000000000455
30
0
40
0.50000000000000711
210
0
220
0
230
1
0
CIRCLE
5
284
100
AcDbEntity
8
0
100
AcDbCircle
10
-20.000000000000313
20
-60.000000000000462
30
0
40
0.49999999999999822
210
0
220
0
230
1
0
CIRCLE
5
285
100
AcDbEntity
8
0
100
AcDbCircle
10
-20.000000000000313
20
-50.000000000000462
30
0
40
0.49999999999999822
210
0
220
0
230
1
0
CIRCLE
5
286
100
AcDbEntity
8
0
100
AcDbCircle
10
-20.000000000000313
20
-39.999997392296791
30
0
40
0.50000000000000266
210
0
220
0
230
1
0
CIRCLE
5
287
100
AcDbEntity
8
0
100
AcDbCircle
10
-20.000000000000313
20
-30.000000000000462
30
0
40
0.49999999999999822
210
0
220
0
230
1
0
CIRCLE
5
288
100
AcDbEntity
8
0
100
AcDbCircle
10
-20.000000000000313
20
-20.000000000000462
30
0
40
0.49999999999999822
210
0
220
0
230
1
0
CIRCLE
5
289
100
AcDbEntity
8
0
100
AcDbCircle
10
-20.000000000000313
20
-10.000000000000462
30
0
40
0.50000000000000711
210
0
220
0
230
1
0
CIRCLE
5
290
100
AcDbEntity
8
0
100
AcDbCircle
10
-30.000000000000313
20
-199.99999999999955
30
0
40
0.50000000000000711
210
0
220
0
230
1
0
CIRCLE
5
291
100
AcDbEntity
8
0
100
AcDbCircle
10
-40.000000000000313
20
-199.99999999999955
30
0
40
0.50000000000000711
210
0
220
0
230
1
0
CIRCLE
5
292
100
AcDbEntity
8
0
100
AcDbCircle
10
-40.000000000000313
20
-189.99999999999955
30
0
40
0.49999999999999822
210
0
220
0
230
1
0
CIRCLE
5
293
100
AcDbEntity
8
0
100
AcDbCircle
10
-30.000000000000313
20
-189.99999999999955
30
0
40
0.49999999999999822
210
0
220
0
230
1
0
CIRCLE
5
294
100
AcDbEntity
8
0
100
AcDbCircle
10
-40.000000000000313
20
-179.99999999999955
30
0
40
0.49999999999999822
210
0
220
0
230
1
0
CIRCLE
5
295
100
AcDbEntity
8
0
100
AcDbCircle
10
-30.000000000000313
20
-179.99999999999955
30
0
40
0.49999999999999822
210
0
220
0
230
1
0
CIRCLE
5
296
100
AcDbEntity
8
0
100
AcDbCircle
10
-40.000000000000313
20
-170.00000260770321
30
0
40
0.49999999999999822
210
0
220
0
230
1
0
CIRCLE
5
297
100
AcDbEntity
8
0
100
AcDbCircle
10
-30.000000000000313
20
-170.00000260770321
30
0
40
0.50000000000000266
210
0
220
0
230
1
0
CIRCLE
5
298
100
AcDbEntity
8
0
100
AcDbCircle
10
-40.000000000000313
20
-159.99999999999955
30
0
40
0.49999999999999822
210
0
220
0
230
1
0
CIRCLE
5
299
100
AcDbEntity
8
0
100
AcDbCircle
10
-30.000000000000313
20
-159.99999999999955
30
0
40
0.49999999999999822
210
0
220
0
230
1
0
CIRCLE
5
300
100
AcDbEntity
8
0
100
AcDbCircle
10
-40.000000000000313
20
-149.99999999999955
30
0
40
0.49999999999999822
210
0
220
0
230
1
0
CIRCLE
5
301
100
AcDbEntity
8
0
100
AcDbCircle
10
-30.000000000000313
20
-149.99999999999955
30
0
40
0.49999999999999822
210
0
220
0
230
1
0
CIRCLE
5
302
100
AcDbEntity
8
0
100
AcDbCircle
10
-40.000000000000313
20
-139.99999999999955
30
0
40
0.50000000000000711
210
0
220
0
230
1
0
CIRCLE
5
303
100
AcDbEntity
8
0
100
AcDbCircle
10
-30.000000000000313
20
-139.99999999999955
30
0
40
0.50000000000000711
210
0
220
0
230
1
0
CIRCLE
5
304
100
AcDbEntity
8
0
100
AcDbCircle
10
-40.000000000000313
20
-129.99999999999955
30
0
40
0.49999999999999822
210
0
220
0
230
1
0
CIRCLE
5
305
100
AcDbEntity
8
0
100
AcDbCircle
10
-30.000000000000313
20
-129.99999999999955
30
0
40
0.49999999999999822
210
0
220
0
230
1
0
CIRCLE
5
306
100
AcDbEntity
8
0
100
AcDbCircle
10
-40.000000000000313
20
-119.99999999999955
30
0
40
0.49999999999999822
210
0
220
0
230
1
0
CIRCLE
5
307
100
AcDbEntity
8
0
100
AcDbCircle
10
-30.000000000000313
20
-119.99999999999955
30
0
40
0.49999999999999822
210
0
220
0
230
1
0
CIRCLE
5
308
100
AcDbEntity
8
0
100
AcDbCircle
10
-40.000000000000313
20
-109.99999739229587
30
0
40
0.49999999999999822
210
0
220
0
230
1
0
CIRCLE
5
309
100
AcDbEntity
8
0
100
AcDbCircle
10
-30.000000000000313
20
-109.99999739229587
30
0
40
0.50000000000000266
210
0
220
0
230
1
0
CIRCLE
5
310
100
AcDbEntity
8
0
100
AcDbCircle
10
-40.000000000000313
20
-100.00000260770413
30
0
40
0.49999999999999822
210
0
220
0
230
1
0
CIRCLE
5
311
100
AcDbEntity
8
0
100
AcDbCircle
10
-30.000000000000313
20
-100.00000260770413
30
0
40
0.50000000000000266
210
0
220
0
230
1
0
CIRCLE
5
312
100
AcDbEntity
8
0
100
AcDbCircle
10
-40.000000000000313
20
-90.000000000000455
30
0
40
0.49999999999999822
210
0
220
0
230
1
0
CIRCLE
5
313
100
AcDbEntity
8
0
100
AcDbCircle
10
-30.000000000000313
20
-90.000000000000455
30
0
40
0.49999999999999822
210
0
220
0
230
1
0
CIRCLE
5
314
100
AcDbEntity
8
0
100
AcDbCircle
10
-40.000000000000313
20
-80.000000000000455
30
0
40
0.49999999999999822
210
0
220
0
230
1
0
CIRCLE
5
315
100
AcDbEntity
8
0
100
AcDbCircle
10
-30.000000000000313
20
-80.000000000000455
30
0
40
0.49999999999999822
210
0
220
0
230
1
0
CIRCLE
5
316
100
AcDbEntity
8
0
100
AcDbCircle
10
-40.000000000000313
20
-70.000000000000455
30
0
40
0.50000000000000711
210
0
220
0
230
1
0
CIRCLE
5
317
100
AcDbEntity
8
0
100
AcDbCircle
10
-30.000000000000313
20
-70.000000000000455
30
0
40
0.50000000000000711
210
0
220
0
230
1
0
CIRCLE
5
318
100
AcDbEntity
8
0
100
AcDbCircle
10
-40.000000000000313
20
-60.000000000000462
30
0
40
0.49999999999999822
210
0
220
0
230
1
0
CIRCLE
5
319
100
AcDbEntity
8
0
100
AcDbCircle
10
-30.000000000000313
20
-60.000000000000462
30
0
40
0.49999999999999822
210
0
220
0
230
1
0
CIRCLE
5
320
100
AcDbEntity
8
0
100
AcDbCircle
10
-40.000000000000313
20
-50.000000000000462
30
0
40
0.49999999999999822
210
0
220
0
230
1
0
CIRCLE
5
321
100
AcDbEntity
8
0
100
AcDbCircle
10
-30.000000000000313
20
-50.000000000000462
30
0
40
0.49999999999999822
210
0
220
0
230
1
0
CIRCLE
5
322
100
AcDbEntity
8
0
100
AcDbCircle
10
-40.000000000000313
20
-39.999997392296791
30
0
40
0.49999999999999822
210
0
220
0
230
1
0
CIRCLE
5
323
100
AcDbEntity
8
0
100
AcDbCircle
10
-30.000000000000313
20
-39.999997392296791
30
0
40
0.50000000000000266
210
0
220
0
230
1
0
CIRCLE
5
324
100
AcDbEntity
8
0
100
AcDbCircle
10
-40.000000000000313
20
-30.000000000000462
30
0
40
0.49999999999999822
210
0
220
0
230
1
0
CIRCLE
5
325
100
AcDbEntity
8
0
100
AcDbCircle
10
-30.000000000000313
20
-30.000000000000462
30
0
40
0.49999999999999822
210
0
220
0
230
1
0
CIRCLE
5
326
100
AcDbEntity
8
0
100
AcDbCircle
10
-40.000000000000313
20
-20.000000000000462
30
0
40
0.49999999999999822
210
0
220
0
230
1
0
CIRCLE
5
327
100
AcDbEntity
8
0
100
AcDbCircle
10
-30.000000000000313
20
-20.000000000000462
30
0
40
0.49999999999999822
210
0
220
0
230
1
0
CIRCLE
5
328
100
AcDbEntity
8
0
100
AcDbCircle
10
-40.000000000000313
20
-10.000000000000462
30
0
40
0.50000000000000711
210
0
220
0
230
1
0
CIRCLE
5
329
100
AcDbEntity
8
0
100
AcDbCircle
10
-30.000000000000313
20
-10.000000000000462
30
0
40
0.50000000000000711
210
0
220
0
230
1
0
CIRCLE
5
330
100
AcDbEntity
8
0
100
AcDbCircle
10
-80.000000000000313
20
-199.99999999999955
30
0
40
0.50000000000000711
210
0
220
0
230
1
0
CIRCLE
5
331
100
AcDbEntity
8
0
100
AcDbCircle
10
-70.000000000000313
20
-199.99999999999955
30
0
40
0.50000000000000711
210
0
220
0
230
1
0
CIRCLE
5
332
100
AcDbEntity
8
0
100
AcDbCircle
10
-60.000000000000313
20
-199.99999999999955
30
0
40
0.50000000000000711
210
0
220
0
230
1
0
CIRCLE
5
333
100
AcDbEntity
8
0
100
AcDbCircle
10
-50.000000000000313
20
-199.99999999999955
30
0
40
0.50000000000000711
210
0
220
0
230
1
0
CIRCLE
5
334
100
AcDbEntity
8
0
100
AcDbCircle
10
-80.000000000000313
20
-189.99999999999955
30
0
40
0.50000000000000711
210
0
220
0
230
1
0
CIRCLE
5
335
100
AcDbEntity
8
0
100
AcDbCircle
10
-70.000000000000313
20
-189.99999999999955
30
0
40
0.49999999999999822
210
0
220
0
230
1
0
CIRCLE
5
336
100
AcDbEntity
8
0
100
AcDbCircle
10
-60.000000000000313
20
-189.99999999999955
30
0
40
0.49999999999999822
210
0
220
0
230
1
0
CIRCLE
5
337
100
AcDbEntity
8
0
100
AcDbCircle
10
-50.000000000000313
20
-189.99999999999955
30
0
40
0.49999999999999822
210
0
220
0
230
1
0
CIRCLE
5
338
100
AcDbEntity
8
0
100
AcDbCircle
10
-80.000000000000313
20
-179.99999999999955
30
0
40
0.49999999999998934
210
0
220
0
230
1
0
CIRCLE
5
339
100
AcDbEntity
8
0
100
AcDbCircle
10
-70.000000000000313
20
-179.99999999999955
30
0
40
0.49999999999999822
210
0
220
0
230
1
0
CIRCLE
5
340
100
AcDbEntity
8
0
100
AcDbCircle
10
-60.000000000000313
20
-179.99999999999955
30
0
40
0.49999999999999822
210
0
220
0
230
1
0
CIRCLE
5
341
100
AcDbEntity
8
0
100
AcDbCircle
10
-50.000000000000313
20
-179.99999999999955
30
0
40
0.49999999999999822
210
0
220
0
230
1
0
CIRCLE
5
342
100
AcDbEntity
8
0
100
AcDbCircle
10
-80.000000000000313
20
-170.00000260770321
30
0
40
0.50000000000000711
210
0
220
0
230
1
0
CIRCLE
5
343
100
AcDbEntity
8
0
100
AcDbCircle
10
-70.000000000000313
20
-170.00000260770321
30
0
40
0.49999999999999822
210
0
220
0
230
1
0
CIRCLE
5
344
100
AcDbEntity
8
0
100
AcDbCircle
10
-60.000000000000313
20
-170.00000260770321
30
0
40
0.49999999999999822
210
0
220
0
230
1
0
CIRCLE
5
345
100
AcDbEntity
8
0
100
AcDbCircle
10
-50.000000000000313
20
-170.00000260770321
30
0
40
0.49999999999999822
210
0
220
0
230
1
0
CIRCLE
5
346
100
AcDbEntity
8
0
100
AcDbCircle
10
-80.000000000000313
20
-159.99999999999955
30
0
40
0.49999999999998934
210
0
220
0
230
1
0
CIRCLE
5
347
100
AcDbEntity
8
0
100
AcDbCircle
10
-70.000000000000313
20
-159.99999999999955
30
0
40
0.49999999999999822
210
0
220
0
230
1
0
CIRCLE
5
348
100
AcDbEntity
8
0
100
AcDbCircle
10
-60.000000000000313
20
-159.99999999999955
30
0
40
0.49999999999999822
210
0
220
0
230
1
0
CIRCLE
5
349
100
AcDbEntity
8
0
100
AcDbCircle
10
-50.000000000000313
20
-159.99999999999955
30
0
40
0.49999999999999822
210
0
220
0
230
1
0
CIRCLE
5
350
100
AcDbEntity
8
0
100
AcDbCircle
10
-80.000000000000313
20
-149.99999999999955
30
0
40
0.50000000000000711
210
0
220
0
230
1
0
CIRCLE
5
351
100
AcDbEntity
8
0
100
AcDbCircle
10
-70.000000000000313
20
-149.99999999999955
30
0
40
0.49999999999999822
210
0
220
0
230
1
0
CIRCLE
5
352
100
AcDbEntity
8
0
100
AcDbCircle
10
-60.000000000000313
20
-149.99999999999955
30
0
40
0.49999999999999822
210
0
220
0
230
1
0
CIRCLE
5
353
100
AcDbEntity
8
0
100
AcDbCircle
10
-50.000000000000313
20
-149.99999999999955
30
0
40
0.49999999999999822
210
0
220
0
230
1
0
CIRCLE
5
354
100
AcDbEntity
8
0
100
AcDbCircle
10
-80.000000000000313
20
-139.99999999999955
30
0
40
0.50000000000000711
210
0
220
0
230
1
0
CIRCLE
5
355
100
AcDbEntity
8
0
100
AcDbCircle
10
-70.000000000000313
20
-139.99999999999955
30
0
40
0.50000000000000711
210
0
220
0
230
1
0
CIRCLE
5
356
100
AcDbEntity
8
0
100
AcDbCircle
10
-60.000000000000313
20
-139.99999999999955
30
0
40
0.50000000000000711
210
0
220
0
230
1
0
CIRCLE
5
357
100
AcDbEntity
8
0
100
AcDbCircle
10
-50.000000000000313
20
-139.99999999999955
30
0
40
0.50000000000000711
210
0
220
0
230
1
0
CIRCLE
5
358
100
AcDbEntity
8
0
100
AcDbCircle
10
-80.000000000000313
20
-129.99999999999955
30
0
40
0.50000000000000711
210
0
220
0
230
1
0
CIRCLE
5
359
100
AcDbEntity
8
0
100
AcDbCircle
10
-70.000000000000313
20
-129.99999999999955
30
0
40
0.49999999999999822
210
0
220
0
230
1
0
CIRCLE
5
360
100
AcDbEntity
8
0
100
AcDbCircle
10
-60.000000000000313
20
-129.99999999999955
30
0
40
0.49999999999999822
210
0
220
0
230
1
0
CIRCLE
5
361
100
AcDbEntity
8
0
100
AcDbCircle
10
-50.000000000000313
20
-129.99999999999955
30
0
40
0.49999999999999822
210
0
220
0
230
1
0
CIRCLE
5
362
100
AcDbEntity
8
0
100
AcDbCircle
10
-80.000000000000313
20
-119.99999999999955
30
0
40
0.49999999999998934
210
0
220
0
230
1
0
CIRCLE
5
363
100
AcDbEntity
8
0
100
AcDbCircle
10
-70.000000000000313
20
-119.99999999999955
30
0
40
0.49999999999999822
210
0
220
0
230
1
0
CIRCLE
5
364
100
AcDbEntity
8
0
100
AcDbCircle
10
-60.000000000000313
20
-119.99999999999955
30
0
40
0.49999999999999822
210
0
220
0
230
1
0
CIRCLE
5
365
100
AcDbEntity
8
0
100
AcDbCircle
10
-50.000000000000313
20
-119.99999999999955
30
0
40
0.49999999999999822
210
0
220
0
230
1
0
CIRCLE
5
366
100
AcDbEntity
8
0
100
AcDbCircle
10
-80.000000000000313
20
-109.99999739229587
30
0
40
0.50000000000000711
210
0
220
0
230
1
0
CIRCLE
5
367
100
AcDbEntity
8
0
100
AcDbCircle
10
-70.000000000000313
20
-109.99999739229587
30
0
40
0.49999999999999822
210
0
220
0
230
1
0
CIRCLE
5
368
100
AcDbEntity
8
0
100
AcDbCircle
10
-60.000000000000313
20
-109.99999739229587
30
0
40
0.49999999999999822
210
0
220
0
230
1
0
CIRCLE
5
369
100
AcDbEntity
8
0
100
AcDbCircle
10
-50.000000000000313
20
-109.99999739229587
30
0
40
0.49999999999999822
210
0
220
0
230
1
0
CIRCLE
5
370
100
AcDbEntity
8
0
100
AcDbCircle
10
-80.000000000000313
20
-100.00000260770413
30
0
40
0.50000000000000711
210
0
220
0
230
1
0
CIRCLE
5
371
100
AcDbEntity
8
0
100
AcDbCircle
10
-70.000000000000313
20
-100.00000260770413
30
0
40
0.49999999999999822
210
0
220
0
230
1
0
CIRCLE
5
372
100
AcDbEntity
8
0
100
AcDbCircle
10
-60.000000000000313
20
-100.00000260770413
30
0
40
0.49999999999999822
210
0
220
0
230
1
0
CIRCLE
5
373
100
AcDbEntity
8
0
100
AcDbCircle
10
-50.000000000000313
20
-100.00000260770413
30
0
40
0.49999999999999822
210
0
220
0
230
1
0
CIRCLE
5
374
100
AcDbEntity
8
0
100
AcDbCircle
10
-80.000000000000313
20
-90.000000000000455
30
0
40
0.49999999999998934
210
0
220
0
230
1
0
CIRCLE
5
375
100
AcDbEntity
8
0
100
AcDbCircle
10
-70.000000000000313
20
-90.000000000000455
30
0
40
0.49999999999999822
210
0
220
0
230
1
0
CIRCLE
5
376
100
AcDbEntity
8
0
100
AcDbCircle
10
-60.000000000000313
20
-90.000000000000455
30
0
40
0.49999999999999822
210
0
220
0
230
1
0
CIRCLE
5
377
100
AcDbEntity
8
0
100
AcDbCircle
10
-50.000000000000313
20
-90.000000000000455
30
0
40
0.49999999999999822
210
0
220
0
230
1
0
CIRCLE
5
378
100
AcDbEntity
8
0
100
AcDbCircle
10
-80.000000000000313
20
-80.000000000000455
30
0
40
0.50000000000000711
210
0
220
0
230
1
0
CIRCLE
5
379
100
AcDbEntity
8
0
100
AcDbCircle
10
-70.000000000000313
20
-80.000000000000455
30
0
40
0.49999999999999822
210
0
220
0
230
1
0
CIRCLE
5
380
100
AcDbEntity
8
0
100
AcDbCircle
10
-60.000000000000313
20
-80.000000000000455
30
0
40
0.49999999999999822
210
0
220
0
230
1
0
CIRCLE
5
381
100
AcDbEntity
8
0
100
AcDbCircle
10
-50.000000000000313
20
-80.000000000000455
30
0
40
0.49999999999999822
210
0
220
0
230
1
0
CIRCLE
5
382
100
AcDbEntity
8
0
100
AcDbCircle
10
-80.000000000000313
20
-70.000000000000455
30
0
40
0.50000000000000711
210
0
220
0
230
1
0
CIRCLE
5
383
100
AcDbEntity
8
0
100
AcDbCircle
10
-70.000000000000313
20
-70.000000000000455
30
0
40
0.50000000000000711
210
0
220
0
230
1
0
CIRCLE
5
384
100
AcDbEntity
8
0
100
AcDbCircle
10
-60.000000000000313
20
-70.000000000000455
30
0
40
0.50000000000000711
210
0
220
0
230
1
0
CIRCLE
5
385
100
AcDbEntity
8
0
100
AcDbCircle
10
-50.000000000000313
20
-70.000000000000455
30
0
40
0.50000000000000711
210
0
220
0
230
1
0
CIRCLE
5
386
100
AcDbEntity
8
0
100
AcDbCircle
10
-80.000000000000313
20
-60.000000000000462
30
0
40
0.50000000000000711
210
0
220
0
230
1
0
CIRCLE
5
387
100
AcDbEntity
8
0
100
AcDbCircle
10
-70.000000000000313
20
-60.000000000000462
30
0
40
0.49999999999999822
210
0
220
0
230
1
0
CIRCLE
5
388
100
AcDbEntity
8
0
100
AcDbCircle
10
-60.000000000000313
20
-60.000000000000462
30
0
40
0.49999999999999822
210
0
220
0
230
1
0
CIRCLE
5
389
100
AcDbEntity
8
0
100
AcDbCircle
10
-50.000000000000313
20
-60.000000000000462
30
0
40
0.49999999999999822
210
0
220
0
230
1
0
CIRCLE
5
390
100
AcDbEntity
8
0
100
AcDbCircle
10
-80.000000000000313
20
-50.000000000000462
30
0
40
0.49999999999998934
210
0
220
0
230
1
0
CIRCLE
5
391
100
AcDbEntity
8
0
100
AcDbCircle
10
-70.000000000000313
20
-50.000000000000462
30
0
40
0.49999999999999822
210
0
220
0
230
1
0
CIRCLE
5
392
100
AcDbEntity
8
0
100
AcDbCircle
10
-60.000000000000313
20
-50.000000000000462
30
0
40
0.49999999999999822
210
0
220
0
230
1
0
CIRCLE
5
393
100
AcDbEntity
8
0
100
AcDbCircle
10
-50.000000000000313
20
-50.000000000000462
30
0
40
0.49999999999999822
210
0
220
0
230
1
0
CIRCLE
5
394
100
AcDbEntity
8
0
100
AcDbCircle
10
-80.000000000000313
20
-39.999997392296791
30
0
40
0.50000000000000711
210
0
220
0
230
1
0
CIRCLE
5
395
100
AcDbEntity
8
0
100
AcDbCircle
10
-70.000000000000313
20
-39.999997392296791
30
0
40
0.49999999999999822
210
0
220
0
230
1
0
CIRCLE
5
396
100
AcDbEntity
8
0
100
AcDbCircle
10
-50.000000000000313
20
-39.999997392296791
30
0
40
0.49999999999999822
210
0
220
0
230
1
0
CIRCLE
5
397
100
AcDbEntity
8
0
100
AcDbCircle
10
-60.000000000000313
20
-39.999997392296791
30
0
40
0.49999999999999822
210
0
220
0
230
1
0
CIRCLE
5
398
100
AcDbEntity
8
0
100
AcDbCircle
10
-80.000000000000313
20
-30.000000000000462
30
0
40
0.49999999999998934
210
0
220
0
230
1
0
CIRCLE
5
399
100
AcDbEntity
8
0
100
AcDbCircle
10
-70.000000000000313
20
-30.000000000000462
30
0
40
0.49999999999999822
210
0
220
0
230
1
0
CIRCLE
5
400
100
AcDbEntity
8
0
100
AcDbCircle
10
-60.000000000000313
20
-30.000000000000462
30
0
40
0.49999999999999822
210
0
220
0
230
1
0
CIRCLE
5
401
100
AcDbEntity
8
0
100
AcDbCircle
10
-50.000000000000313
20
-30.000000000000462
30
0
40
0.49999999999999822
210
0
220
0
230
1
0
CIRCLE
5
402
100
AcDbEntity
8
0
100
AcDbCircle
10
-50.000000000000313
20
-20.000000000000462
30
0
40
0.49999999999999822
210
0
220
0
230
1
0
CIRCLE
5
403
100
AcDbEntity
8
0
100
AcDbCircle
10
-50.000000000000313
20
-10.000000000000462
30
0
40
0.50000000000000711
210
0
220
0
230
1
0
CIRCLE
5
404
100
AcDbEntity
8
0
100
AcDbCircle
10
-60.000000000000313
20
-10.000000000000462
30
0
40
0.50000000000000711
210
0
220
0
230
1
0
CIRCLE
5
405
100
AcDbEntity
8
0
100
AcDbCircle
10
-60.000000000000313
20
-20.000000000000462
30
0
40
0.49999999999999822
210
0
220
0
230
1
0
CIRCLE
5
406
100
AcDbEntity
8
0
100
AcDbCircle
10
-70.000000000000313
20
-20.000000000000462
30
0
40
0.49999999999999822
210
0
220
0
230
1
0
CIRCLE
5
407
100
AcDbEntity
8
0
100
AcDbCircle
10
-70.000000000000313
20
-10.000000000000462
30
0
40
0.50000000000000711
210
0
220
0
230
1
0
CIRCLE
5
408
100
AcDbEntity
8
0
100
AcDbCircle
10
-80.000000000000313
20
-10.000000000000462
30
0
40
0.50000000000000711
210
0
220
0
230
1
0
CIRCLE
5
409
100
AcDbEntity
8
0
100
AcDbCircle
10
-80.000000000000313
20
-20.000000000000462
30
0
40
0.50000000000000711
210
0
220
0
230
1
0
CIRCLE
5
410
100
AcDbEntity
8
0
100
AcDbCircle
10
-90.000000000000313
20
-189.99999999999955
30
0
40
0.50000000000000711
210
0
220
0
230
1
0
CIRCLE
5
411
100
AcDbEntity
8
0
100
AcDbCircle
10
-100.00000000000031
20
-189.99999999999955
30
0
40
0.50000000000000711
210
0
220
0
230
1
0
CIRCLE
5
412
100
AcDbEntity
8
0
100
AcDbCircle
10
-100.00000000000031
20
-179.99999999999955
30
0
40
0.49999999999998934
210
0
220
0
230
1
0
CIRCLE
5
413
100
AcDbEntity
8
0
100
AcDbCircle
10
-90.000000000000313
20
-139.99999999999955
30
0
40
0.50000000000000711
210
0
220
0
230
1
0
CIRCLE
5
414
100
AcDbEntity
8
0
100
AcDbCircle
10
-90.000000000000313
20
-159.99999999999955
30
0
40
0.49999999999998934
210
0
220
0
230
1
0
CIRCLE
5
415
100
AcDbEntity
8
0
100
AcDbCircle
10
-100.00000000000031
20
-159.99999999999955
30
0
40
0.49999999999998934
210
0
220
0
230
1
0
CIRCLE
5
416
100
AcDbEntity
8
0
100
AcDbCircle
10
-90.000000000000313
20
-179.99999999999955
30
0
40
0.49999999999998934
210
0
220
0
230
1
0
CIRCLE
5
417
100
AcDbEntity
8
0
100
AcDbCircle
10
-90.000000000000313
20
-170.00000260770321
30
0
40
0.50000000000000711
210
0
220
0
230
1
0
CIRCLE
5
418
100
AcDbEntity
8
0
100
AcDbCircle
10
-100.00000000000031
20
-149.99999999999955
30
0
40
0.50000000000000711
210
0
220
0
230
1
0
CIRCLE
5
419
100
AcDbEntity
8
0
100
AcDbCircle
10
-90.000000000000313
20
-149.99999999999955
30
0
40
0.50000000000000711
210
0
220
0
230
1
0
CIRCLE
5
420
100
AcDbEntity
8
0
100
AcDbCircle
10
-100.00000000000031
20
-170.00000260770321
30
0
40
0.50000000000000711
210
0
220
0
230
1
0
CIRCLE
5
421
100
AcDbEntity
8
0
100
AcDbCircle
10
-100.00000000000031
20
-139.99999999999955
30
0
40
0.50000000000000711
210
0
220
0
230
1
0
CIRCLE
5
422
100
AcDbEntity
8
0
100
AcDbCircle
10
-100.00000000000031
20
-90.000000000000455
30
0
40
0.49999999999998934
210
0
220
0
230
1
0
CIRCLE
5
423
100
AcDbEntity
8
0
100
AcDbCircle
10
-100.00000000000031
20
-119.99999999999955
30
0
40
0.49999999999998934
210
0
220
0
230
1
0
CIRCLE
5
424
100
AcDbEntity
8
0
100
AcDbCircle
10
-100.00000000000031
20
-129.99999999999955
30
0
40
0.50000000000000711
210
0
220
0
230
1
0
CIRCLE
5
425
100
AcDbEntity
8
0
100
AcDbCircle
10
-100.00000000000031
20
-30.000000000000462
30
0
40
0.49999999999998934
210
0
220
0
230
1
0
CIRCLE
5
426
100
AcDbEntity
8
0
100
AcDbCircle
10
-100.00000000000031
20
-80.000000000000455
30
0
40
0.50000000000000711
210
0
220
0
230
1
0
CIRCLE
5
427
100
AcDbEntity
8
0
100
AcDbCircle
10
-90.000000000000313
20
-20.000000000000462
30
0
40
0.50000000000000711
210
0
220
0
230
1
0
CIRCLE
5
428
100
AcDbEntity
8
0
100
AcDbCircle
10
-90.000000000000313
20
-10.000000000000462
30
0
40
0.50000000000000711
210
0
220
0
230
1
0
CIRCLE
5
429
100
AcDbEntity
8
0
100
AcDbCircle
10
-90.000000000000313
20
-129.99999999999955
30
0
40
0.50000000000000711
210
0
220
0
230
1
0
CIRCLE
5
430
100
AcDbEntity
8
0
100
AcDbCircle
10
-90.000000000000313
20
-119.99999999999955
30
0
40
0.49999999999998934
210
0
220
0
230
1
0
CIRCLE
5
431
100
AcDbEntity
8
0
100
AcDbCircle
10
-100.00000000000031
20
-100.00000260770413
30
0
40
0.50000000000000711
210
0
220
0
230
1
0
CIRCLE
5
432
100
AcDbEntity
8
0
100
AcDbCircle
10
-100.00000000000031
20
-70.000000000000455
30
0
40
0.50000000000000711
210
0
220
0
230
1
0
CIRCLE
5
433
100
AcDbEntity
8
0
100
AcDbCircle
10
-100.00000000000031
20
-39.999997392296791
30
0
40
0.50000000000000711
210
0
220
0
230
1
0
CIRCLE
5
434
100
AcDbEntity
8
0
100
AcDbCircle
10
-100.00000000000031
20
-50.000000000000462
30
0
40
0.49999999999998934
210
0
220
0
230
1
0
CIRCLE
5
435
100
AcDbEntity
8
0
100
AcDbCircle
10
-100.00000000000031
20
-60.000000000000462
30
0
40
0.50000000000000711
210
0
220
0
230
1
0
CIRCLE
5
436
100
AcDbEntity
8
0
100
AcDbCircle
10
-100.00000000000031
20
-20.000000000000462
30
0
40
0.50000000000000711
210
0
220
0
230
1
0
CIRCLE
5
437
100
AcDbEntity
8
0
100
AcDbCircle
10
-90.000000000000313
20
-90.000000000000455
30
0
40
0.49999999999998934
210
0
220
0
230
1
0
CIRCLE
5
438
100
AcDbEntity
8
0
100
AcDbCircle
10
-100.00000000000031
20
-10.000000000000462
30
0
40
0.50000000000000711
210
0
220
0
230
1
0
CIRCLE
5
439
100
AcDbEntity
8
0
100
AcDbCircle
10
-90.000000000000313
20
-30.000000000000462
30
0
40
0.49999999999998934
210
0
220
0
230
1
0
CIRCLE
5
440
100
AcDbEntity
8
0
100
AcDbCircle
10
-90.000000000000313
20
-50.000000000000462
30
0
40
0.49999999999998934
210
0
220
0
230
1
0
CIRCLE
5
441
100
AcDbEntity
8
0
100
AcDbCircle
10
-90.000000000000313
20
-39.999997392296791
30
0
40
0.50000000000000711
210
0
220
0
230
1
0
CIRCLE
5
442
100
AcDbEntity
8
0
100
AcDbCircle
10
-90.000000000000313
20
-109.99999739229587
30
0
40
0.50000000000000711
210
0
220
0
230
1
0
CIRCLE
5
443
100
AcDbEntity
8
0
100
AcDbCircle
10
-90.000000000000313
20
-60.000000000000462
30
0
40
0.50000000000000711
210
0
220
0
230
1
0
CIRCLE
5
444
100
AcDbEntity
8
0
100
AcDbCircle
10
-90.000000000000313
20
-100.00000260770413
30
0
40
0.50000000000000711
210
0
220
0
230
1
0
CIRCLE
5
445
100
AcDbEntity
8
0
100
AcDbCircle
10
-100.00000000000031
20
-109.99999739229587
30
0
40
0.50000000000000711
210
0
220
0
230
1
0
CIRCLE
5
446
100
AcDbEntity
8
0
100
AcDbCircle
10
-90.000000000000313
20
-80.000000000000455
30
0
40
0.50000000000000711
210
0
220
0
230
1
0
CIRCLE
5
447
100
AcDbEntity
8
0
100
AcDbCircle
10
-90.000000000000313
20
-70.000000000000455
30
0
40
0.50000000000000711
210
0
220
0
230
1
0
CIRCLE
5
448
100
AcDbEntity
8
0
100
AcDbCircle
10
-100.00000000000031
20
-199.99999999999955
30
0
40
0.50000000000000711
210
0
220
0
230
1
0
CIRCLE
5
449
100
AcDbEntity
8
0
100
AcDbCircle
10
-90.000000000000313
20
-199.99999999999955
30
0
40
0.50000000000000711
210
0
220
0
230
1
0
CIRCLE
5
450
100
AcDbEntity
8
0
100
AcDbCircle
10
-189.99999999999969
20
-109.99999739229587
30
0
40
0.50000000000000711
210
0
220
0
230
1
0
CIRCLE
5
451
100
AcDbEntity
8
0
100
AcDbCircle
10
-189.99999999999969
20
-39.999997392296791
30
0
40
0.50000000000000711
210
0
220
0
230
1
0
CIRCLE
5
452
100
AcDbEntity
8
0
100
AcDbCircle
10
-149.99999999999969
20
-149.99999999999955
30
0
40
0.50000000000000711
210
0
220
0
230
1
0
CIRCLE
5
453
100
AcDbEntity
8
0
100
AcDbCircle
10
-179.99999999999969
20
-149.99999999999955
30
0
40
0.50000000000000711
210
0
220
0
230
1
0
CIRCLE
5
454
100
AcDbEntity
8
0
100
AcDbCircle
10
-179.99999999999969
20
-129.99999999999955
30
0
40
0.50000000000000711
210
0
220
0
230
1
0
CIRCLE
5
455
100
AcDbEntity
8
0
100
AcDbCircle
10
-179.99999999999969
20
-139.99999999999955
30
0
40
0.50000000000000711
210
0
220
0
230
1
0
CIRCLE
5
456
100
AcDbEntity
8
0
100
AcDbCircle
10
-169.99999999999969
20
-139.99999999999955
30
0
40
0.50000000000000711
210
0
220
0
230
1
0
CIRCLE
5
457
100
AcDbEntity
8
0
100
AcDbCircle
10
-189.99999999999969
20
-70.000000000000455
30
0
40
0.50000000000000711
210
0
220
0
230
1
0
CIRCLE
5
458
100
AcDbEntity
8
0
100
AcDbCircle
10
-189.99999999999969
20
-179.99999999999955
30
0
40
0.50000000000000711
210
0
220
0
230
1
0
CIRCLE
5
459
100
AcDbEntity
8
0
100
AcDbCircle
10
-189.99999999999969
20
-30.000000000000462
30
0
40
0.50000000000000711
210
0
220
0
230
1
0
CIRCLE
5
460
100
AcDbEntity
8
0
100
AcDbCircle
10
-159.99999999999969
20
-90.000000000000455
30
0
40
0.50000000000000711
210
0
220
0
230
1
0
CIRCLE
5
461
100
AcDbEntity
8
0
100
AcDbCircle
10
-179.99999999999969
20
-170.00000260770321
30
0
40
0.50000000000000711
210
0
220
0
230
1
0
CIRCLE
5
462
100
AcDbEntity
8
0
100
AcDbCircle
10
-109.99999999999969
20
-50.000000000000462
30
0
40
0.49999999999998934
210
0
220
0
230
1
0
CIRCLE
5
463
100
AcDbEntity
8
0
100
AcDbCircle
10
-169.99999999999969
20
-159.99999999999955
30
0
40
0.50000000000000711
210
0
220
0
230
1
0
CIRCLE
5
464
100
AcDbEntity
8
0
100
AcDbCircle
10
-109.99999999999969
20
-30.000000000000462
30
0
40
0.49999999999998934
210
0
220
0
230
1
0
CIRCLE
5
465
100
AcDbEntity
8
0
100
AcDbCircle
10
-119.99999999999969
20
-50.000000000000462
30
0
40
0.49999999999998934
210
0
220
0
230
1
0
CIRCLE
5
466
100
AcDbEntity
8
0
100
AcDbCircle
10
-179.99999999999969
20
-199.99999999999955
30
0
40
0.50000000000000711
210
0
220
0
230
1
0
CIRCLE
5
467
100
AcDbEntity
8
0
100
AcDbCircle
10
-119.99999999999969
20
-189.99999999999955
30
0
40
0.50000000000000711
210
0
220
0
230
1
0
CIRCLE
5
468
100
AcDbEntity
8
0
100
AcDbCircle
10
-129.99999999999969
20
-119.99999999999955
30
0
40
0.49999999999998934
210
0
220
0
230
1
0
CIRCLE
5
469
100
AcDbEntity
8
0
100
AcDbCircle
10
-179.99999999999969
20
-189.99999999999955
30
0
40
0.50000000000000711
210
0
220
0
230
1
0
CIRCLE
5
470
100
AcDbEntity
8
0
100
AcDbCircle
10
-109.99999999999969
20
-199.99999999999955
30
0
40
0.50000000000000711
210
0
220
0
230
1
0
CIRCLE
5
471
100
AcDbEntity
8
0
100
AcDbCircle
10
-169.99999999999969
20
-170.00000260770321
30
0
40
0.50000000000000711
210
0
220
0
230
1
0
CIRCLE
5
472
100
AcDbEntity
8
0
100
AcDbCircle
10
-139.99999999999969
20
-199.99999999999955
30
0
40
0.50000000000000711
210
0
220
0
230
1
0
CIRCLE
5
473
100
AcDbEntity
8
0
100
AcDbCircle
10
-129.99999999999969
20
-129.99999999999955
30
0
40
0.50000000000000711
210
0
220
0
230
1
0
CIRCLE
5
474
100
AcDbEntity
8
0
100
AcDbCircle
10
-179.99999999999969
20
-100.00000260770413
30
0
40
0.50000000000000711
210
0
220
0
230
1
0
CIRCLE
5
475
100
AcDbEntity
8
0
100
AcDbCircle
10
-119.99999999999969
20
-149.99999999999955
30
0
40
0.50000000000000711
210
0
220
0
230
1
0
CIRCLE
5
476
100
AcDbEntity
8
0
100
AcDbCircle
10
-129.99999999999969
20
-30.000000000000462
30
0
40
0.49999999999998934
210
0
220
0
230
1
0
CIRCLE
5
477
100
AcDbEntity
8
0
100
AcDbCircle
10
-119.99999999999969
20
-109.99999739229587
30
0
40
0.50000000000000711
210
0
220
0
230
1
0
CIRCLE
5
478
100
AcDbEntity
8
0
100
AcDbCircle
10
-159.99999999999969
20
-60.000000000000462
30
0
40
0.50000000000000711
210
0
220
0
230
1
0
CIRCLE
5
479
100
AcDbEntity
8
0
100
AcDbCircle
10
-179.99999999999969
20
-60.000000000000462
30
0
40
0.50000000000000711
210
0
220
0
230
1
0
CIRCLE
5
480
100
AcDbEntity
8
0
100
AcDbCircle
10
-199.99999999999969
20
-129.99999999999955
30
0
40
0.50000000000000711
210
0
220
0
230
1
0
CIRCLE
5
481
100
AcDbEntity
8
0
100
AcDbCircle
10
-119.99999999999969
20
-129.99999999999955
30
0
40
0.50000000000000711
210
0
220
0
230
1
0
CIRCLE
5
482
100
AcDbEntity
8
0
100
AcDbCircle
10
-109.99999999999969
20
-170.00000260770321
30
0
40
0.50000000000000711
210
0
220
0
230
1
0
CIRCLE
5
483
100
AcDbEntity
8
0
100
AcDbCircle
10
-109.99999999999969
20
-139.99999999999955
30
0
40
0.50000000000000711
210
0
220
0
230
1
0
CIRCLE
5
484
100
AcDbEntity
8
0
100
AcDbCircle
10
-149.99999999999969
20
-199.99999999999955
30
0
40
0.50000000000000711
210
0
220
0
230
1
0
CIRCLE
5
485
100
AcDbEntity
8
0
100
AcDbCircle
10
-129.99999999999969
20
-199.99999999999955
30
0
40
0.50000000000000711
210
0
220
0
230
1
0
CIRCLE
5
486
100
AcDbEntity
8
0
100
AcDbCircle
10
-129.99999999999969
20
-90.000000000000455
30
0
40
0.49999999999998934
210
0
220
0
230
1
0
CIRCLE
5
487
100
AcDbEntity
8
0
100
AcDbCircle
10
-139.99999999999969
20
-159.99999999999955
30
0
40
0.49999999999998934
210
0
220
0
230
1
0
CIRCLE
5
488
100
AcDbEntity
8
0
100
AcDbCircle
10
-139.99999999999969
20
-170.00000260770321
30
0
40
0.50000000000000711
210
0
220
0
230
1
0
CIRCLE
5
489
100
AcDbEntity
8
0
100
AcDbCircle
10
-129.99999999999969
20
-39.999997392296791
30
0
40
0.50000000000000711
210
0
220
0
230
1
0
CIRCLE
5
490
100
AcDbEntity
8
0
100
AcDbCircle
10
-109.99999999999969
20
-179.99999999999955
30
0
40
0.49999999999998934
210
0
220
0
230
1
0
CIRCLE
5
491
100
AcDbEntity
8
0
100
AcDbCircle
10
-179.99999999999969
20
-159.99999999999955
30
0
40
0.50000000000000711
210
0
220
0
230
1
0
CIRCLE
5
492
100
AcDbEntity
8
0
100
AcDbCircle
10
-109.99999999999969
20
-60.000000000000462
30
0
40
0.50000000000000711
210
0
220
0
230
1
0
CIRCLE
5
493
100
AcDbEntity
8
0
100
AcDbCircle
10
-129.99999999999969
20
-159.99999999999955
30
0
40
0.49999999999998934
210
0
220
0
230
1
0
CIRCLE
5
494
100
AcDbEntity
8
0
100
AcDbCircle
10
-119.99999999999969
20
-159.99999999999955
30
0
40
0.49999999999998934
210
0
220
0
230
1
0
CIRCLE
5
495
100
AcDbEntity
8
0
100
AcDbCircle
10
-149.99999999999969
20
-100.00000260770413
30
0
40
0.50000000000000711
210
0
220
0
230
1
0
CIRCLE
5
496
100
AcDbEntity
8
0
100
AcDbCircle
10
-119.99999999999969
20
-199.99999999999955
30
0
40
0.50000000000000711
210
0
220
0
230
1
0
CIRCLE
5
497
100
AcDbEntity
8
0
100
AcDbCircle
10
-139.99999999999969
20
-189.99999999999955
30
0
40
0.50000000000000711
210
0
220
0
230
1
0
CIRCLE
5
498
100
AcDbEntity
8
0
100
AcDbCircle
10
-109.99999999999969
20
-159.99999999999955
30
0
40
0.49999999999998934
210
0
220
0
230
1
0
CIRCLE
5
499
100
AcDbEntity
8
0
100
AcDbCircle
10
-119.99999999999969
20
-179.99999999999955
30
0
40
0.49999999999998934
210
0
220
0
230
1
0
CIRCLE
5
500
100
AcDbEntity
8
0
100
AcDbCircle
10
-169.99999999999969
20
-199.99999999999955
30
0
40
0.50000000000000711
210
0
220
0
230
1
0
LWPOLYLINE
5
501
100
AcDbEntity
8
0
100
AcDbPolyline
90
4
70
1
43
0.0
10
1.7763568394002505e-14
20
-210
10
-210
20
-210
10
-210
20
3.5527136788005009e-14
10
0
20
1.7763568394002505e-14
0
CIRCLE
5
502
100
AcDbEntity
8
0
100
AcDbCircle
10
-169.99999999999969
20
-199.99999999999955
30
0
40
0.50000000000000711
210
-0
220
0
230
1
0
CIRCLE
5
503
100
AcDbEntity
8
0
100
AcDbCircle
10
-119.99999999999969
20
-179.99999999999955
30
0
40
0.49999999999998934
210
-0
220
0
230
1
0
CIRCLE
5
504
100
AcDbEntity
8
0
100
AcDbCircle
10
-109.99999999999969
20
-159.99999999999955
30
0
40
0.49999999999998934
210
-0
220
0
230
1
0
CIRCLE
5
505
100
AcDbEntity
8
0
100
AcDbCircle
10
-139.99999999999969
20
-189.99999999999955
30
0
40
0.50000000000000711
210
-0
220
0
230
1
0
CIRCLE
5
506
100
AcDbEntity
8
0
100
AcDbCircle
10
-119.99999999999969
20
-199.99999999999955
30
0
40
0.50000000000000711
210
-0
220
0
230
1
0
CIRCLE
5
507
100
AcDbEntity
8
0
100
AcDbCircle
10
-149.99999999999969
20
-100.00000260770413
30
0
40
0.50000000000000711
210
-0
220
0
230
1
0
CIRCLE
5
508
100
AcDbEntity
8
0
100
AcDbCircle
10
-119.99999999999969
20
-159.99999999999955
30
0
40
0.49999999999998934
210
-0
220
0
230
1
0
CIRCLE
5
509
100
AcDbEntity
8
0
100
AcDbCircle
10
-129.99999999999969
20
-159.99999999999955
30
0
40
0.49999999999998934
210
-0
220
0
230
1
0
CIRCLE
5
510
100
AcDbEntity
8
0
100
AcDbCircle
10
-109.99999999999969
20
-60.000000000000462
30
0
40
0.50000000000000711
210
-0
220
0
230
1
0
CIRCLE
5
511
100
AcDbEntity
8
0
100
AcDbCircle
10
-179.99999999999969
20
-159.99999999999955
30
0
40
0.50000000000000711
210
-0
220
0
230
1
0
CIRCLE
5
512
100
AcDbEntity
8
0
100
AcDbCircle
10
-109.99999999999969
20
-179.99999999999955
30
0
40
0.49999999999998934
210
-0
220
0
230
1
0
CIRCLE
5
513
100
AcDbEntity
8
0
100
AcDbCircle
10
-129.99999999999969
20
-39.999997392296791
30
0
40
0.50000000000000711
210
-0
220
0
230
1
0
CIRCLE
5
514
100
AcDbEntity
8
0
100
AcDbCircle
10
-139.99999999999969
20
-170.00000260770321
30
0
40
0.50000000000000711
210
-0
220
0
230
1
0
CIRCLE
5
515
100
AcDbEntity
8
0
100
AcDbCircle
10
-139.99999999999969
20
-159.99999999999955
30
0
40
0.49999999999998934
210
-0
220
0
230
1
0
CIRCLE
5
516
100
AcDbEntity
8
0
100
AcDbCircle
10
-129.99999999999969
20
-90.000000000000455
30
0
40
0.49999999999998934
210
-0
220
0
230
1
0
CIRCLE
5
517
100
AcDbEntity
8
0
100
AcDbCircle
10
-129.99999999999969
20
-199.99999999999955
30
0
40
0.50000000000000711
210
-0
220
0
230
1
0
CIRCLE
5
518
100
AcDbEntity
8
0
100
AcDbCircle
10
-149.99999999999969
20
-199.99999999999955
30
0
40
0.50000000000000711
210
-0
220
0
230
1
0
CIRCLE
5
519
100
AcDbEntity
8
0
100
AcDbCircle
10
-109.99999999999969
20
-139.99999999999955
30
0
40
0.50000000000000711
210
-0
220
0
230
1
0
CIRCLE
5
520
100
AcDbEntity
8
0
100
AcDbCircle
10
-109.99999999999969
20
-170.00000260770321
30
0
40
0.50000000000000711
210
-0
220
0
230
1
0
CIRCLE
5
521
100
AcDbEntity
8
0
100
AcDbCircle
10
-119.99999999999969
20
-129.99999999999955
30
0
40
0.50000000000000711
210
-0
220
0
230
1
0
CIRCLE
5
522
100
AcDbEntity
8
0
100
AcDbCircle
10
-199.99999999999969
20
-129.99999999999955
30
0
40
0.50000000000000711
210
-0
220
0
230
1
0
CIRCLE
5
523
100
AcDbEntity
8
0
100
AcDbCircle
10
-179.99999999999969
20
-60.000000000000462
30
0
40
0.50000000000000711
210
-0
220
0
230
1
0
CIRCLE
5
524
100
AcDbEntity
8
0
100
AcDbCircle
10
-159.99999999999969
20
-60.000000000000462
30
0
40
0.50000000000000711
210
-0
220
0
230
1
0
CIRCLE
5
525
100
AcDbEntity
8
0
100
AcDbCircle
10
-119.99999999999969
20
-109.99999739229587
30
0
40
0.50000000000000711
210
-0
220
0
230
1
0
CIRCLE
5
526
100
AcDbEntity
8
0
100
AcDbCircle
10
-129.99999999999969
20
-30.000000000000462
30
0
40
0.49999999999998934
210
-0
220
0
230
1
0
CIRCLE
5
527
100
AcDbEntity
8
0
100
AcDbCircle
10
-119.99999999999969
20
-149.99999999999955
30
0
40
0.50000000000000711
210
-0
220
0
230
1
0
CIRCLE
5
528
100
AcDbEntity
8
0
100
AcDbCircle
10
-179.99999999999969
20
-100.00000260770413
30
0
40
0.50000000000000711
210
-0
220
0
230
1
0
CIRCLE
5
529
100
AcDbEntity
8
0
100
AcDbCircle
10
-129.99999999999969
20
-129.99999999999955
30
0
40
0.50000000000000711
210
-0
220
0
230
1
0
CIRCLE
5
530
100
AcDbEntity
8
0
100
AcDbCircle
10
-139.99999999999969
20
-199.99999999999955
30
0
40
0.50000000000000711
210
-0
220
0
230
1
0
CIRCLE
5
531
100
AcDbEntity
8
0
100
AcDbCircle
10
-169.99999999999969
20
-170.00000260770321
30
0
40
0.50000000000000711
210
-0
220
0
230
1
0
CIRCLE
5
532
100
AcDbEntity
8
0
100
AcDbCircle
10
-109.99999999999969
20
-199.99999999999955
30
0
40
0.50000000000000711
210
-0
220
0
230
1
0
CIRCLE
5
533
100
AcDbEntity
8
0
100
AcDbCircle
10
-179.99999999999969
20
-189.99999999999955
30
0
40
0.50000000000000711
210
-0
220
0
230
1
0
CIRCLE
5
534
100
AcDbEntity
8
0
100
AcDbCircle
10
-129.99999999999969
20
-119.99999999999955
30
0
40
0.49999999999998934
210
-0
220
0
230
1
0
CIRCLE
5
535
100
AcDbEntity
8
0
100
AcDbCircle
10
-119.99999999999969
20
-189.99999999999955
30
0
40
0.50000000000000711
210
-0
220
0
230
1
0
CIRCLE
5
536
100
AcDbEntity
8
0
100
AcDbCircle
10
-179.99999999999969
20
-199.99999999999955
30
0
40
0.50000000000000711
210
-0
220
0
230
1
0
CIRCLE
5
537
100
AcDbEntity
8
0
100
AcDbCircle
10
-119.99999999999969
20
-50.000000000000462
30
0
40
0.49999999999998934
210
-0
220
0
230
1
0
CIRCLE
5
538
100
AcDbEntity
8
0
100
AcDbCircle
10
-109.99999999999969
20
-30.000000000000462
30
0
40
0.49999999999998934
210
-0
220
0
230
1
0
CIRCLE
5
539
100
AcDbEntity
8
0
100
AcDbCircle
10
-169.99999999999969
20
-159.99999999999955
30
0
40
0.50000000000000711
210
-0
220
0
230
1
0
CIRCLE
5
540
100
AcDbEntity
8
0
100
AcDbCircle
10
-109.99999999999969
20
-50.000000000000462
30
0
40
0.49999999999998934
210
-0
220
0
230
1
0
CIRCLE
5
541
100
AcDbEntity
8
0
100
AcDbCircle
10
-179.99999999999969
20
-170.00000260770321
30
0
40
0.50000000000000711
210
-0
220
0
230
1
0
CIRCLE
5
542
100
AcDbEntity
8
0
100
AcDbCircle
10
-159.99999999999969
20
-90.000000000000455
30
0
40
0.50000000000000711
210
-0
220
0
230
1
0
CIRCLE
5
543
100
AcDbEntity
8
0
100
AcDbCircle
10
-189.99999999999969
20
-30.000000000000462
30
0
40
0.50000000000000711
210
-0
220
0
230
1
0
CIRCLE
5
544
100
AcDbEntity
8
0
100
AcDbCircle
10
-189.99999999999969
20
-179.99999999999955
30
0
40
0.50000000000000711
210
-0
220
0
230
1
0
CIRCLE
5
545
100
AcDbEntity
8
0
100
AcDbCircle
10
-189.99999999999969
20
-70.000000000000455
30
0
40
0.50000000000000711
210
-0
220
0
230
1
0
CIRCLE
5
546
100
AcDbEntity
8
0
100
AcDbCircle
10
-169.99999999999969
20
-139.99999999999955
30
0
40
0.50000000000000711
210
-0
220
0
230
1
0
CIRCLE
5
547
100
AcDbEntity
8
0
100
AcDbCircle
10
-179.99999999999969
20
-139.99999999999955
30
0
40
0.50000000000000711
210
-0
220
0
230
1
0
CIRCLE
5
548
100
AcDbEntity
8
0
100
AcDbCircle
10
-179.99999999999969
20
-129.99999999999955
30
0
40
0.50000000000000711
210
-0
220
0
230
1
0
CIRCLE
5
549
100
AcDbEntity
8
0
100
AcDbCircle
10
-179.99999999999969
20
-149.99999999999955
30
0
40
0.50000000000000711
210
-0
220
0
230
1
0
CIRCLE
5
550
100
AcDbEntity
8
0
100
AcDbCircle
10
-149.99999999999969
20
-149.99999999999955
30
0
40
0.50000000000000711
210
-0
220
0
230
1
0
CIRCLE
5
551
100
AcDbEntity
8
0
100
AcDbCircle
10
-189.99999999999969
20
-39.999997392296791
30
0
40
0.50000000000000711
210
-0
220
0
230
1
0
CIRCLE
5
552
100
AcDbEntity
8
0
100
AcDbCircle
10
-189.99999999999969
20
-109.99999739229587
30
0
40
0.50000000000000711
210
-0
220
0
230
1
0
CIRCLE
5
553
100
AcDbEntity
8
0
100
AcDbCircle
10
-90.000000000000313
20
-199.99999999999955
30
0
40
0.50000000000000711
210
-0
220
0
230
1
0
CIRCLE
5
554
100
AcDbEntity
8
0
100
AcDbCircle
10
-100.00000000000031
20
-199.99999999999955
30
0
40
0.50000000000000711
210
-0
220
0
230
1
0
CIRCLE
5
555
100
AcDbEntity
8
0
100
AcDbCircle
10
-90.000000000000313
20
-70.000000000000455
30
0
40
0.50000000000000711
210
-0
220
0
230
1
0
CIRCLE
5
556
100
AcDbEntity
8
0
100
AcDbCircle
10
-90.000000000000313
20
-80.000000000000455
30
0
40
0.50000000000000711
210
-0
220
0
230
1
0
CIRCLE
5
557
100
AcDbEntity
8
0
100
AcDbCircle
10
-100.00000000000031
20
-109.99999739229587
30
0
40
0.50000000000000711
210
-0
220
0
230
1
0
CIRCLE
5
558
100
AcDbEntity
8
0
100
AcDbCircle
10
-90.000000000000313
20
-100.00000260770413
30
0
40
0.50000000000000711
210
-0
220
0
230
1
0
CIRCLE
5
559
100
AcDbEntity
8
0
100
AcDbCircle
10
-90.000000000000313
20
-60.000000000000462
30
0
40
0.50000000000000711
210
-0
220
0
230
1
0
CIRCLE
5
560
100
AcDbEntity
8
0
100
AcDbCircle
10
-90.000000000000313
20
-109.99999739229587
30
0
40
0.50000000000000711
210
-0
220
0
230
1
0
CIRCLE
5
561
100
AcDbEntity
8
0
100
AcDbCircle
10
-90.000000000000313
20
-39.999997392296791
30
0
40
0.50000000000000711
210
-0
220
0
230
1
0
CIRCLE
5
562
100
AcDbEntity
8
0
100
AcDbCircle
10
-90.000000000000313
20
-50.000000000000462
30
0
40
0.49999999999998934
210
-0
220
0
230
1
0
CIRCLE
5
563
100
AcDbEntity
8
0
100
AcDbCircle
10
-90.000000000000313
20
-30.000000000000462
30
0
40
0.49999999999998934
210
-0
220
0
230
1
0
CIRCLE
5
564
100
AcDbEntity
8
0
100
AcDbCircle
10
-100.00000000000031
20
-10.000000000000462
30
0
40
0.50000000000000711
210
-0
220
0
230
1
0
CIRCLE
5
565
100
AcDbEntity
8
0
100
AcDbCircle
10
-90.000000000000313
20
-90.000000000000455
30
0
40
0.49999999999998934
210
-0
220
0
230
1
0
CIRCLE
5
566
100
AcDbEntity
8
0
100
AcDbCircle
10
-100.00000000000031
20
-20.000000000000462
30
0
40
0.50000000000000711
210
-0
220
0
230
1
0
CIRCLE
5
567
100
AcDbEntity
8
0
100
AcDbCircle
10
-100.00000000000031
20
-60.000000000000462
30
0
40
0.50000000000000711
210
-0
220
0
230
1
0
CIRCLE
5
568
100
AcDbEntity
8
0
100
AcDbCircle
10
-100.00000000000031
20
-50.000000000000462
30
0
40
0.49999999999998934
210
-0
220
0
230
1
0
CIRCLE
5
569
100
AcDbEntity
8
0
100
AcDbCircle
10
-100.00000000000031
20
-39.999997392296791
30
0
40
0.50000000000000711
210
-0
220
0
230
1
0
CIRCLE
5
570
100
AcDbEntity
8
0
100
AcDbCircle
10
-100.00000000000031
20
-70.000000000000455
30
0
40
0.50000000000000711
210
-0
220
0
230
1
0
CIRCLE
5
571
100
AcDbEntity
8
0
100
AcDbCircle
10
-100.00000000000031
20
-100.00000260770413
30
0
40
0.50000000000000711
210
-0
220
0
230
1
0
CIRCLE
5
572
100
AcDbEntity
8
0
100
AcDbCircle
10
-90.000000000000313
20
-119.99999999999955
30
0
40
0.49999999999998934
210
-0
220
0
230
1
0
CIRCLE
5
573
100
AcDbEntity
8
0
100
AcDbCircle
10
-90.000000000000313
20
-129.99999999999955
30
0
40
0.50000000000000711
210
-0
220
0
230
1
0
CIRCLE
5
574
100
AcDbEntity
8
0
100
AcDbCircle
10
-90.000000000000313
20
-10.000000000000462
30
0
40
0.50000000000000711
210
-0
220
0
230
1
0
CIRCLE
5
575
100
AcDbEntity
8
0
100
AcDbCircle
10
-90.000000000000313
20
-20.000000000000462
30
0
40
0.50000000000000711
210
-0
220
0
230
1
0
CIRCLE
5
576
100
AcDbEntity
8
0
100
AcDbCircle
10
-100.00000000000031
20
-80.000000000000455
30
0
40
0.50000000000000711
210
-0
220
0
230
1
0
CIRCLE
5
577
100
AcDbEntity
8
0
100
AcDbCircle
10
-100.00000000000031
20
-30.000000000000462
30
0
40
0.49999999999998934
210
-0
220
0
230
1
0
CIRCLE
5
578
100
AcDbEntity
8
0
100
AcDbCircle
10
-100.00000000000031
20
-129.99999999999955
30
0
40
0.50000000000000711
210
-0
220
0
230
1
0
CIRCLE
5
579
100
AcDbEntity
8
0
100
AcDbCircle
10
-100.00000000000031
20
-119.99999999999955
30
0
40
0.49999999999998934
210
-0
220
0
230
1
0
CIRCLE
5
580
100
AcDbEntity
8
0
100
AcDbCircle
10
-100.00000000000031
20
-90.000000000000455
30
0
40
0.49999999999998934
210
-0
220
0
230
1
0
CIRCLE
5
581
100
AcDbEntity
8
0
100
AcDbCircle
10
-100.00000000000031
20
-139.99999999999955
30
0
40
0.50000000000000711
210
-0
220
0
230
1
0
CIRCLE
5
582
100
AcDbEntity
8
0
100
AcDbCircle
10
-100.00000000000031
20
-170.00000260770321
30
0
40
0.50000000000000711
210
-0
220
0
230
1
0
CIRCLE
5
583
100
AcDbEntity
8
0
100
AcDbCircle
10
-90.000000000000313
20
-149.99999999999955
30
0
40
0.50000000000000711
210
-0
220
0
230
1
0
CIRCLE
5
584
100
AcDbEntity
8
0
100
AcDbCircle
10
-100.00000000000031
20
-149.99999999999955
30
0
40
0.50000000000000711
210
-0
220
0
230
1
0
CIRCLE
5
585
100
AcDbEntity
8
0
100
AcDbCircle
10
-90.000000000000313
20
-170.00000260770321
30
0
40
0.50000000000000711
210
-0
220
0
230
1
0
CIRCLE
5
586
100
AcDbEntity
8
0
100
AcDbCircle
10
-90.000000000000313
20
-179.99999999999955
30
0
40
0.49999999999998934
210
-0
220
0
230
1
0
CIRCLE
5
587
100
AcDbEntity
8
0
100
AcDbCircle
10
-100.00000000000031
20
-159.99999999999955
30
0
40
0.49999999999998934
210
-0
220
0
230
1
0
CIRCLE
5
588
100
AcDbEntity
8
0
100
AcDbCircle
10
-90.000000000000313
20
-159.99999999999955
30
0
40
0.49999999999998934
210
-0
220
0
230
1
0
CIRCLE
5
589
100
AcDbEntity
8
0
100
AcDbCircle
10
-90.000000000000313
20
-139.99999999999955
30
0
40
0.50000000000000711
210
-0
220
0
230
1
0
CIRCLE
5
590
100
AcDbEntity
8
0
100
AcDbCircle
10
-100.00000000000031
20
-179.99999999999955
30
0
40
0.49999999999998934
210
-0
220
0
230
1
0
CIRCLE
5
591
100
AcDbEntity
8
0
100
AcDbCircle
10
-100.00000000000031
20
-189.99999999999955
30
0
40
0.50000000000000711
210
-0
220
0
230
1
0
CIRCLE
5
592
100
AcDbEntity
8
0
100
AcDbCircle
10
-90.000000000000313
20
-189.99999999999955
30
0
40
0.50000000000000711
210
-0
220
0
230
1
0
CIRCLE
5
593
100
AcDbEntity
8
0
100
AcDbCircle
10
-80.000000000000313
20
-20.000000000000462
30
0
40
0.50000000000000711
210
-0
220
0
230
1
0
CIRCLE
5
594
100
AcDbEntity
8
0
100
AcDbCircle
10
-80.000000000000313
20
-10.000000000000462
30
0
40
0.50000000000000711
210
-0
220
0
230
1
0
CIRCLE
5
595
100
AcDbEntity
8
0
100
AcDbCircle
10
-70.000000000000313
20
-10.000000000000462
30
0
40
0.50000000000000711
210
-0
220
0
230
1
0
CIRCLE
5
596
100
AcDbEntity
8
0
100
AcDbCircle
10
-70.000000000000313
20
-20.000000000000462
30
0
40
0.49999999999999822
210
-0
220
0
230
1
0
CIRCLE
5
597
100
AcDbEntity
8
0
100
AcDbCircle
10
-60.000000000000313
20
-20.000000000000462
30
0
40
0.49999999999999822
210
-0
220
0
230
1
0
CIRCLE
5
598
100
AcDbEntity
8
0
100
AcDbCircle
10
-60.000000000000313
20
-10.000000000000462
30
0
40
0.50000000000000711
210
-0
220
0
230
1
0
CIRCLE
5
599
100
AcDbEntity
8
0
100
AcDbCircle
10
-50.000000000000313
20
-10.000000000000462
30
0
40
0.50000000000000711
210
-0
220
0
230
1
0
CIRCLE
5
600
100
AcDbEntity
8
0
100
AcDbCircle
10
-50.000000000000313
20
-20.000000000000462
30
0
40
0.49999999999999822
210
-0
220
0
230
1
0
CIRCLE
5
601
100
AcDbEntity
8
0
100
AcDbCircle
10
-50.000000000000313
20
-30.000000000000462
30
0
40
0.49999999999999822
210
-0
220
0
230
1
0
CIRCLE
5
602
100
AcDbEntity
8
0
100
AcDbCircle
10
-60.000000000000313
20
-30.000000000000462
30
0
40
0.49999999999999822
210
-0
220
0
230
1
0
CIRCLE
5
603
100
AcDbEntity
8
0
100
AcDbCircle
10
-70.000000000000313
20
-30.000000000000462
30
0
40
0.49999999999999822
210
-0
220
0
230
1
0
CIRCLE
5
604
100
AcDbEntity
8
0
100
AcDbCircle
10
-80.000000000000313
20
-30.000000000000462
30
0
40
0.49999999999998934
210
-0
220
0
230
1
0
CIRCLE
5
605
100
AcDbEntity
8
0
100
AcDbCircle
10
-60.000000000000313
20
-39.999997392296791
30
0
40
0.49999999999999822
210
-0
220
0
230
1
0
CIRCLE
5
606
100
AcDbEntity
8
0
100
AcDbCircle
10
-50.000000000000313
20
-39.999997392296791
30
0
40
0.49999999999999822
210
-0
220
0
230
1
0
CIRCLE
5
607
100
AcDbEntity
8
0
100
AcDbCircle
10
-70.000000000000313
20
-39.999997392296791
30
0
40
0.49999999999999822
210
-0
220
0
230
1
0
CIRCLE
5
608
100
AcDbEntity
8
0
100
AcDbCircle
10
-80.000000000000313
20
-39.999997392296791
30
0
40
0.50000000000000711
210
-0
220
0
230
1
0
CIRCLE
5
609
100
AcDbEntity
8
0
100
AcDbCircle
10
-50.000000000000313
20
-50.000000000000462
30
0
40
0.49999999999999822
210
-0
220
0
230
1
0
CIRCLE
5
610
100
AcDbEntity
8
0
100
AcDbCircle
10
-60.000000000000313
20
-50.000000000000462
30
0
40
0.49999999999999822
210
-0
220
0
230
1
0
CIRCLE
5
611
100
AcDbEntity
8
0
100
AcDbCircle
10
-70.000000000000313
20
-50.000000000000462
30
0
40
0.49999999999999822
210
-0
220
0
230
1
0
CIRCLE
5
612
100
AcDbEntity
8
0
100
AcDbCircle
10
-80.000000000000313
20
-50.000000000000462
30
0
40
0.49999999999998934
210
-0
220
0
230
1
0
CIRCLE
5
613
100
AcDbEntity
8
0
100
AcDbCircle
10
-50.000000000000313
20
-60.000000000000462
30
0
40
0.49999999999999822
210
-0
220
0
230
1
0
CIRCLE
5
614
100
AcDbEntity
8
0
100
AcDbCircle
10
-60.000000000000313
20
-60.000000000000462
30
0
40
0.49999999999999822
210
-0
220
0
230
1
0
CIRCLE
5
615
100
AcDbEntity
8
0
100
AcDbCircle
10
-70.000000000000313
20
-60.000000000000462
30
0
40
0.49999999999999822
210
-0
220
0
230
1
0
CIRCLE
5
616
100
AcDbEntity
8
0
100
AcDbCircle
10
-80.000000000000313
20
-60.000000000000462
30
0
40
0.50000000000000711
210
-0
220
0
230
1
0
CIRCLE
5
617
100
AcDbEntity
8
0
100
AcDbCircle
10
-50.000000000000313
20
-70.000000000000455
30
0
40
0.50000000000000711
210
-0
220
0
230
1
0
CIRCLE
5
618
100
AcDbEntity
8
0
100
AcDbCircle
10
-60.000000000000313
20
-70.000000000000455
30
0
40
0.50000000000000711
210
-0
220
0
230
1
0
CIRCLE
5
619
100
AcDbEntity
8
0
100
AcDbCircle
10
-70.000000000000313
20
-70.000000000000455
30
0
40
0.50000000000000711
210
-0
220
0
230
1
0
CIRCLE
5
620
100
AcDbEntity
8
0
100
AcDbCircle
10
-80.000000000000313
20
-70.000000000000455
30
0
40
0.50000000000000711
210
-0
220
0
230
1
0
CIRCLE
5
621
100
AcDbEntity
8
0
100
AcDbCircle
10
-50.000000000000313
20
-80.000000000000455
30
0
40
0.49999999999999822
210
-0
220
0
230
1
0
CIRCLE
5
622
100
AcDbEntity
8
0
100
AcDbCircle
10
-60.000000000000313
20
-80.000000000000455
30
0
40
0.49999999999999822
210
-0
220
0
230
1
0
CIRCLE
5
623
100
AcDbEntity
8
0
100
AcDbCircle
10
-70.000000000000313
20
-80.000000000000455
30
0
40
0.49999999999999822
210
-0
220
0
230
1
0
CIRCLE
5
624
100
AcDbEntity
8
0
100
AcDbCircle
10
-80.000000000000313
20
-80.000000000000455
30
0
40
0.50000000000000711
210
-0
220
0
230
1
0
CIRCLE
5
625
100
AcDbEntity
8
0
100
AcDbCircle
10
-50.000000000000313
20
-90.000000000000455
30
0
40
0.49999999999999822
210
-0
220
0
230
1
0
CIRCLE
5
626
100
AcDbEntity
8
0
100
AcDbCircle
10
-60.000000000000313
20
-90.000000000000455
30
0
40
0.49999999999999822
210
-0
220
0
230
1
0
CIRCLE
5
627
100
AcDbEntity
8
0
100
AcDbCircle
10
-70.000000000000313
20
-90.000000000000455
30
0
40
0.49999999999999822
210
-0
220
0
230
1
0
CIRCLE
5
628
100
AcDbEntity
8
0
100
AcDbCircle
10
-80.000000000000313
20
-90.000000000000455
30
0
40
0.49999999999998934
210
-0
220
0
230
1
0
CIRCLE
5
629
100
AcDbEntity
8
0
100
AcDbCircle
10
-50.000000000000313
20
-100.00000260770413
30
0
40
0.49999999999999822
210
-0
220
0
230
1
0
CIRCLE
5
630
100
AcDbEntity
8
0
100
AcDbCircle
10
-60.000000000000313
20
-100.00000260770413
30
0
40
0.49999999999999822
210
-0
220
0
230
1
0
CIRCLE
5
631
100
AcDbEntity
8
0
100
AcDbCircle
10
-70.000000000000313
20
-100.00000260770413
30
0
40
0.49999999999999822
210
-0
220
0
230
1
0
CIRCLE
5
632
100
AcDbEntity
8
0
100
AcDbCircle
10
-80.000000000000313
20
-100.00000260770413
30
0
40
0.50000000000000711
210
-0
220
0
230
1
0
CIRCLE
5
633
100
AcDbEntity
8
0
100
AcDbCircle
10
-50.000000000000313
20
-109.99999739229587
30
0
40
0.49999999999999822
210
-0
220
0
230
1
0
CIRCLE
5
634
100
AcDbEntity
8
0
100
AcDbCircle
10
-60.000000000000313
20
-109.99999739229587
30
0
40
0.49999999999999822
210
-0
220
0
230
1
0
CIRCLE
5
635
100
AcDbEntity
8
0
100
AcDbCircle
10
-70.000000000000313
20
-109.99999739229587
30
0
40
0.49999999999999822
210
-0
220
0
230
1
0
CIRCLE
5
636
100
AcDbEntity
8
0
100
AcDbCircle
10
-80.000000000000313
20
-109.99999739229587
30
0
40
0.50000000000000711
210
-0
220
0
230
1
0
CIRCLE
5
637
100
AcDbEntity
8
0
100
AcDbCircle
10
-50.000000000000313
20
-119.99999999999955
30
0
40
0.49999999999999822
210
-0
220
0
230
1
0
CIRCLE
5
638
100
AcDbEntity
8
0
100
AcDbCircle
10
-60.000000000000313
20
-119.99999999999955
30
0
40
0.49999999999999822
210
-0
220
0
230
1
0
CIRCLE
5
639
100
AcDbEntity
8
0
100
AcDbCircle
10
-70.000000000000313
20
-119.99999999999955
30
0
40
0.49999999999999822
210
-0
220
0
230
1
0
CIRCLE
5
640
100
AcDbEntity
8
0
100
AcDbCircle
10
-80.000000000000313
20
-119.99999999999955
30
0
40
0.49999999999998934
210
-0
220
0
230
1
0
CIRCLE
5
641
100
AcDbEntity
8
0
100
AcDbCircle
10
-50.000000000000313
20
-129.99999999999955
30
0
40
0.49999999999999822
210
-0
220
0
230
1
0
CIRCLE
5
642
100
AcDbEntity
8
0
100
AcDbCircle
10
-60.000000000000313
20
-129.99999999999955
30
0
40
0.49999999999999822
210
-0
220
0
230
1
0
CIRCLE
5
643
100
AcDbEntity
8
0
100
AcDbCircle
10
-70.000000000000313
20
-129.99999999999955
30
0
40
0.49999999999999822
210
-0
220
0
230
1
0
CIRCLE
5
644
100
AcDbEntity
8
0
100
AcDbCircle
10
-80.000000000000313
20
-129.99999999999955
30
0
40
0.50000000000000711
210
-0
220
0
230
1
0
CIRCLE
5
645
100
AcDbEntity
8
0
100
AcDbCircle
10
-50.000000000000313
20
-139.99999999999955
30
0
40
0.50000000000000711
210
-0
220
0
230
1
0
CIRCLE
5
646
100
AcDbEntity
8
0
100
AcDbCircle
10
-60.000000000000313
20
-139.99999999999955
30
0
40
0.50000000000000711
210
-0
220
0
230
1
0
CIRCLE
5
647
100
AcDbEntity
8
0
100
AcDbCircle
10
-70.000000000000313
20
-139.99999999999955
30
0
40
0.50000000000000711
210
-0
220
0
230
1
0
CIRCLE
5
648
100
AcDbEntity
8
0
100
AcDbCircle
10
-80.000000000000313
20
-139.99999999999955
30
0
40
0.50000000000000711
210
-0
220
0
230
1
0
CIRCLE
5
649
100
AcDbEntity
8
0
100
AcDbCircle
10
-50.000000000000313
20
-149.99999999999955
30
0
40
0.49999999999999822
210
-0
220
0
230
1
0
CIRCLE
5
650
100
AcDbEntity
8
0
100
AcDbCircle
10
-60.000000000000313
20
-149.99999999999955
30
0
40
0.49999999999999822
210
-0
220
0
230
1
0
CIRCLE
5
651
100
AcDbEntity
8
0
100
AcDbCircle
10
-70.000000000000313
20
-149.99999999999955
30
0
40
0.49999999999999822
210
-0
220
0
230
1
0
CIRCLE
5
652
100
AcDbEntity
8
0
100
AcDbCircle
10
-80.000000000000313
20
-149.99999999999955
30
0
40
0.50000000000000711
210
-0
220
0
230
1
0
CIRCLE
5
653
100
AcDbEntity
8
0
100
AcDbCircle
10
-50.000000000000313
20
-159.99999999999955
30
0
40
0.49999999999999822
210
-0
220
0
230
1
0
CIRCLE
5
654
100
AcDbEntity
8
0
100
AcDbCircle
10
-60.000000000000313
20
-159.99999999999955
30
0
40
0.49999999999999822
210
-0
220
0
230
1
0
CIRCLE
5
655
100
AcDbEntity
8
0
100
AcDbCircle
10
-70.000000000000313
20
-159.99999999999955
30
0
40
0.49999999999999822
210
-0
220
0
230
1
0
CIRCLE
5
656
100
AcDbEntity
8
0
100
AcDbCircle
10
-80.000000000000313
20
-159.99999999999955
30
0
40
0.49999999999998934
210
-0
220
0
230
1
0
CIRCLE
5
657
100
AcDbEntity
8
0
100
AcDbCircle
10
-50.000000000000313
20
-170.00000260770321
30
0
40
0.49999999999999822
210
-0
220
0
230
1
0
CIRCLE
5
658
100
AcDbEntity
8
0
100
AcDbCircle
10
-60.000000000000313
20
-170.00000260770321
30
0
40
0.49999999999999822
210
-0
220
0
230
1
0
CIRCLE
5
659
100
AcDbEntity
8
0
100
AcDbCircle
10
-70.000000000000313
20
-170.00000260770321
30
0
40
0.49999999999999822
210
-0
220
0
230
1
0
CIRCLE
5
660
100
AcDbEntity
8
0
100
AcDbCircle
10
-80.000000000000313
20
-170.00000260770321
30
0
40
0.50000000000000711
210
-0
220
0
230
1
0
CIRCLE
5
661
100
AcDbEntity
8
0
100
AcDbCircle
10
-50.000000000000313
20
-179.99999999999955
30
0
40
0.49999999999999822
210
-0
220
0
230
1
0
CIRCLE
5
662
100
AcDbEntity
8
0
100
AcDbCircle
10
-60.000000000000313
20
-179.99999999999955
30
0
40
0.49999999999999822
210
-0
220
0
230
1
0
CIRCLE
5
663
100
AcDbEntity
8
0
100
AcDbCircle
10
-70.000000000000313
20
-179.99999999999955
30
0
40
0.49999999999999822
210
-0
220
0
230
1
0
CIRCLE
5
664
100
AcDbEntity
8
0
100
AcDbCircle
10
-80.000000000000313
20
-179.99999999999955
30
0
40
0.49999999999998934
210
-0
220
0
230
1
0
CIRCLE
5
665
100
AcDbEntity
8
0
100
AcDbCircle
10
-50.000000000000313
20
-189.99999999999955
30
0
40
0.49999999999999822
210
-0
220
0
230
1
0
CIRCLE
5
666
100
AcDbEntity
8
0
100
AcDbCircle
10
-60.000000000000313
20
-189.99999999999955
30
0
40
0.49999999999999822
210
-0
220
0
230
1
0
CIRCLE
5
667
100
AcDbEntity
8
0
100
AcDbCircle
10
-70.000000000000313
20
-189.99999999999955
30
0
40
0.49999999999999822
210
-0
220
0
230
1
0
CIRCLE
5
668
100
AcDbEntity
8
0
100
AcDbCircle
10
-80.000000000000313
20
-189.99999999999955
30
0
40
0.50000000000000711
210
-0
220
0
230
1
0
CIRCLE
5
669
100
AcDbEntity
8
0
100
AcDbCircle
10
-50.000000000000313
20
-199.99999999999955
30
0
40
0.50000000000000711
210
-0
220
0
230
1
0
CIRCLE
5
670
100
AcDbEntity
8
0
100
AcDbCircle
10
-60.000000000000313
20
-199.99999999999955
30
0
40
0.50000000000000711
210
-0
220
0
230
1
0
CIRCLE
5
671
100
AcDbEntity
8
0
100
AcDbCircle
10
-70.000000000000313
20
-199.99999999999955
30
0
40
0.50000000000000711
210
-0
220
0
230
1
0
CIRCLE
5
672
100
AcDbEntity
8
0
100
AcDbCircle
10
-80.000000000000313
20
-199.99999999999955
30
0
40
0.50000000000000711
210
-0
220
0
230
1
0
CIRCLE
5
673
100
AcDbEntity
8
0
100
AcDbCircle
10
-30.000000000000313
20
-10.000000000000462
30
0
40
0.50000000000000711
210
-0
220
0
230
1
0
CIRCLE
5
674
100
AcDbEntity
8
0
100
AcDbCircle
10
-40.000000000000313
20
-10.000000000000462
30
0
40
0.50000000000000711
210
-0
220
0
230
1
0
CIRCLE
5
675
100
AcDbEntity
8
0
100
AcDbCircle
10
-30.000000000000313
20
-20.000000000000462
30
0
40
0.49999999999999822
210
-0
220
0
230
1
0
CIRCLE
5
676
100
AcDbEntity
8
0
100
AcDbCircle
10
-40.000000000000313
20
-20.000000000000462
30
0
40
0.49999999999999822
210
-0
220
0
230
1
0
CIRCLE
5
677
100
AcDbEntity
8
0
100
AcDbCircle
10
-30.000000000000313
20
-30.000000000000462
30
0
40
0.49999999999999822
210
-0
220
0
230
1
0
CIRCLE
5
678
100
AcDbEntity
8
0
100
AcDbCircle
10
-40.000000000000313
20
-30.000000000000462
30
0
40
0.49999999999999822
210
-0
220
0
230
1
0
CIRCLE
5
679
100
AcDbEntity
8
0
100
AcDbCircle
10
-30.000000000000313
20
-39.999997392296791
30
0
40
0.50000000000000266
210
-0
220
0
230
1
0
CIRCLE
5
680
100
AcDbEntity
8
0
100
AcDbCircle
10
-40.000000000000313
20
-39.999997392296791
30
0
40
0.49999999999999822
210
-0
220
0
230
1
0
CIRCLE
5
681
100
AcDbEntity
8
0
100
AcDbCircle
10
-30.000000000000313
20
-50.000000000000462
30
0
40
0.49999999999999822
210
-0
220
0
230
1
0
CIRCLE
5
682
100
AcDbEntity
8
0
100
AcDbCircle
10
-40.000000000000313
20
-50.000000000000462
30
0
40
0.49999999999999822
210
-0
220
0
230
1
0
CIRCLE
5
683
100
AcDbEntity
8
0
100
AcDbCircle
10
-30.000000000000313
20
-60.000000000000462
30
0
40
0.49999999999999822
210
-0
220
0
230
1
0
CIRCLE
5
684
100
AcDbEntity
8
0
100
AcDbCircle
10
-40.000000000000313
20
-60.000000000000462
30
0
40
0.49999999999999822
210
-0
220
0
230
1
0
CIRCLE
5
685
100
AcDbEntity
8
0
100
AcDbCircle
10
-30.000000000000313
20
-70.000000000000455
30
0
40
0.50000000000000711
210
-0
220
0
230
1
0
CIRCLE
5
686
100
AcDbEntity
8
0
100
AcDbCircle
10
-40.000000000000313
20
-70.000000000000455
30
0
40
0.50000000000000711
210
-0
220
0
230
1
0
CIRCLE
5
687
100
AcDbEntity
8
0
100
AcDbCircle
10
-30.000000000000313
20
-80.000000000000455
30
0
40
0.49999999999999822
210
-0
220
0
230
1
0
CIRCLE
5
688
100
AcDbEntity
8
0
100
AcDbCircle
10
-40.000000000000313
20
-80.000000000000455
30
0
40
0.49999999999999822
210
-0
220
0
230
1
0
CIRCLE
5
689
100
AcDbEntity
8
0
100
AcDbCircle
10
-30.000000000000313
20
-90.000000000000455
30
0
40
0.49999999999999822
210
-0
220
0
230
1
0
CIRCLE
5
690
100
AcDbEntity
8
0
100
AcDbCircle
10
-40.000000000000313
20
-90.000000000000455
30
0
40
0.49999999999999822
210
-0
220
0
230
1
0
CIRCLE
5
691
100
AcDbEntity
8
0
100
AcDbCircle
10
-30.000000000000313
20
-100.00000260770413
30
0
40
0.50000000000000266
210
-0
220
0
230
1
0
CIRCLE
5
692
100
AcDbEntity
8
0
100
AcDbCircle
10
-40.000000000000313
20
-100.00000260770413
30
0
40
0.49999999999999822
210
-0
220
0
230
1
0
CIRCLE
5
693
100
AcDbEntity
8
0
100
AcDbCircle
10
-30.000000000000313
20
-109.99999739229587
30
0
40
0.50000000000000266
210
-0
220
0
230
1
0
CIRCLE
5
694
100
AcDbEntity
8
0
100
AcDbCircle
10
-40.000000000000313
20
-109.99999739229587
30
0
40
0.49999999999999822
210
-0
220
0
230
1
0
CIRCLE
5
695
100
AcDbEntity
8
0
100
AcDbCircle
10
-30.000000000000313
20
-119.99999999999955
30
0
40
0.49999999999999822
210
-0
220
0
230
1
0
CIRCLE
5
696
100
AcDbEntity
8
0
100
AcDbCircle
10
-40.000000000000313
20
-119.99999999999955
30
0
40
0.49999999999999822
210
-0
220
0
230
1
0
CIRCLE
5
697
100
AcDbEntity
8
0
100
AcDbCircle
10
-30.000000000000313
20
-129.99999999999955
30
0
40
0.49999999999999822
210
-0
220
0
230
1
0
CIRCLE
5
698
100
AcDbEntity
8
0
100
AcDbCircle
10
-40.000000000000313
20
-129.99999999999955
30
0
40
0.49999999999999822
210
-0
220
0
230
1
0
CIRCLE
5
699
100
AcDbEntity
8
0
100
AcDbCircle
10
-30.000000000000313
20
-139.99999999999955
30
0
40
0.50000000000000711
210
-0
220
0
230
1
0
CIRCLE
5
700
100
AcDbEntity
8
0
100
AcDbCircle
10
-40.000000000000313
20
-139.99999999999955
30
0
40
0.50000000000000711
210
-0
220
0
230
1
0
CIRCLE
5
701
100
AcDbEntity
8
0
100
AcDbCircle
10
-30.000000000000313
20
-149.99999999999955
30
0
40
0.49999999999999822
210
-0
220
0
230
1
0
CIRCLE
5
702
100
AcDbEntity
8
0
100
AcDbCircle
10
-40.000000000000313
20
-149.99999999999955
30
0
40
0.49999999999999822
210
-0
220
0
230
1
0
CIRCLE
5
703
100
AcDbEntity
8
0
100
AcDbCircle
10
-30.000000000000313
20
-159.99999999999955
30
0
40
0.49999999999999822
210
-0
220
0
230
1
0
CIRCLE
5
704
100
AcDbEntity
8
0
100
AcDbCircle
10
-40.000000000000313
20
-159.99999999999955
30
0
40
0.49999999999999822
210
-0
220
0
230
1
0
CIRCLE
5
705
100
AcDbEntity
8
0
100
AcDbCircle
10
-30.000000000000313
20
-170.00000260770321
30
0
40
0.50000000000000266
210
-0
220
0
230
1
0
CIRCLE
5
706
100
AcDbEntity
8
0
100
AcDbCircle
10
-40.000000000000313
20
-170.00000260770321
30
0
40
0.49999999999999822
210
-0
220
0
230
1
0
CIRCLE
5
707
100
AcDbEntity
8
0
100
AcDbCircle
10
-30.000000000000313
20
-179.99999999999955
30
0
40
0.49999999999999822
210
-0
220
0
230
1
0
CIRCLE
5
708
100
AcDbEntity
8
0
100
AcDbCircle
10
-40.000000000000313
20
-179.99999999999955
30
0
40
0.49999999999999822
210
-0
220
0
230
1
0
CIRCLE
5
709
100
AcDbEntity
8
0
100
AcDbCircle
10
-30.000000000000313
20
-189.99999999999955
30
0
40
0.49999999999999822
210
-0
220
0
230
1
0
CIRCLE
5
710
100
AcDbEntity
8
0
100
AcDbCircle
10
-40.000000000000313
20
-189.99999999999955
30
0
40
0.49999999999999822
210
-0
220
0
230
1
0
CIRCLE
5
711
100
AcDbEntity
8
0
100
AcDbCircle
10
-40.000000000000313
20
-199.99999999999955
30
0
40
0.50000000000000711
210
-0
220
0
230
1
0
CIRCLE
5
712
100
AcDbEntity
8
0
100
AcDbCircle
10
-30.000000000000313
20
-199.99999999999955
30
0
40
0.50000000000000711
210
-0
220
0
230
1
0
CIRCLE
5
713
100
AcDbEntity
8
0
100
AcDbCircle
10
-20.000000000000313
20
-10.000000000000462
30
0
40
0.50000000000000711
210
-0
220
0
230
1
0
CIRCLE
5
714
100
AcDbEntity
8
0
100
AcDbCircle
10
-20.000000000000313
20
-20.000000000000462
30
0
40
0.49999999999999822
210
-0
220
0
230
1
0
CIRCLE
5
715
100
AcDbEntity
8
0
100
AcDbCircle
10
-20.000000000000313
20
-30.000000000000462
30
0
40
0.49999999999999822
210
-0
220
0
230
1
0
CIRCLE
5
716
100
AcDbEntity
8
0
100
AcDbCircle
10
-20.000000000000313
20
-39.999997392296791
30
0
40
0.50000000000000266
210
-0
220
0
230
1
0
CIRCLE
5
717
100
AcDbEntity
8
0
100
AcDbCircle
10
-20.000000000000313
20
-50.000000000000462
30
0
40
0.49999999999999822
210
-0
220
0
230
1
0
CIRCLE
5
718
100
AcDbEntity
8
0
100
AcDbCircle
10
-20.000000000000313
20
-60.000000000000462
30
0
40
0.49999999999999822
210
-0
220
0
230
1
0
CIRCLE
5
719
100
AcDbEntity
8
0
100
AcDbCircle
10
-20.000000000000313
20
-70.000000000000455
30
0
40
0.50000000000000711
210
-0
220
0
230
1
0
CIRCLE
5
720
100
AcDbEntity
8
0
100
AcDbCircle
10
-20.000000000000313
20
-80.000000000000455
30
0
40
0.49999999999999822
210
-0
220
0
230
1
0
CIRCLE
5
721
100
AcDbEntity
8
0
100
AcDbCircle
10
-20.000000000000313
20
-90.000000000000455
30
0
40
0.49999999999999822
210
-0
220
0
230
1
0
CIRCLE
5
722
100
AcDbEntity
8
0
100
AcDbCircle
10
-20.000000000000313
20
-100.00000260770413
30
0
40
0.50000000000000266
210
-0
220
0
230
1
0
CIRCLE
5
723
100
AcDbEntity
8
0
100
AcDbCircle
10
-20.000000000000313
20
-109.99999739229587
30
0
40
0.50000000000000266
210
-0
220
0
230
1
0
CIRCLE
5
724
100
AcDbEntity
8
0
100
AcDbCircle
10
-20.000000000000313
20
-119.99999999999955
30
0
40
0.49999999999999822
210
-0
220
0
230
1
0
CIRCLE
5
725
100
AcDbEntity
8
0
100
AcDbCircle
10
-20.000000000000313
20
-129.99999999999955
30
0
40
0.49999999999999822
210
-0
220
0
230
1
0
CIRCLE
5
726
100
AcDbEntity
8
0
100
AcDbCircle
10
-20.000000000000313
20
-139.99999999999955
30
0
40
0.50000000000000711
210
-0
220
0
230
1
0
CIRCLE
5
727
100
AcDbEntity
8
0
100
AcDbCircle
10
-20.000000000000313
20
-149.99999999999955
30
0
40
0.49999999999999822
210
-0
220
0
230
1
0
CIRCLE
5
728
100
AcDbEntity
8
0
100
AcDbCircle
10
-20.000000000000313
20
-159.99999999999955
30
0
40
0.49999999999999822
210
-0
220
0
230
1
0
CIRCLE
5
729
100
AcDbEntity
8
0
100
AcDbCircle
10
-20.000000000000313
20
-170.00000260770321
30
0
40
0.50000000000000266
210
-0
220
0
230
1
0
CIRCLE
5
730
100
AcDbEntity
8
0
100
AcDbCircle
10
-20.000000000000313
20
-179.99999999999955
30
0
40
0.49999999999999822
210
-0
220
0
230
1
0
CIRCLE
5
731
100
AcDbEntity
8
0
100
AcDbCircle
10
-20.000000000000313
20
-189.99999999999955
30
0
40
0.49999999999999822
210
-0
220
0
230
1
0
CIRCLE
5
732
100
AcDbEntity
8
0
100
AcDbCircle
10
-159.99999999999969
20
-129.99999999999955
30
0
40
0.50000000000000711
210
-0
220
0
230
1
0
CIRCLE
5
733
100
AcDbEntity
8
0
100
AcDbCircle
10
-109.99999999999969
20
-10.000000000000462
30
0
40
0.50000000000000711
210
-0
220
0
230
1
0
CIRCLE
5
734
100
AcDbEntity
8
0
100
AcDbCircle
10
-189.99999999999969
20
-10.000000000000462
30
0
40
0.50000000000000711
210
-0
220
0
230
1
0
CIRCLE
5
735
100
AcDbEntity
8
0
100
AcDbCircle
10
-139.99999999999969
20
-20.000000000000462
30
0
40
0.50000000000000711
210
-0
220
0
230
1
0
CIRCLE
5
736
100
AcDbEntity
8
0
100
AcDbCircle
10
-189.99999999999969
20
-20.000000000000462
30
0
40
0.50000000000000711
210
-0
220
0
230
1
0
CIRCLE
5
737
100
AcDbEntity
8
0
100
AcDbCircle
10
-169.99999999999969
20
-10.000000000000462
30
0
40
0.50000000000000711
210
-0
220
0
230
1
0
CIRCLE
5
738
100
AcDbEntity
8
0
100
AcDbCircle
10
-159.99999999999969
20
-10.000000000000462
30
0
40
0.50000000000000711
210
-0
220
0
230
1
0
CIRCLE
5
739
100
AcDbEntity
8
0
100
AcDbCircle
10
-199.99999999999969
20
-10.000000000000462
30
0
40
0.50000000000000711
210
-0
220
0
230
1
0
CIRCLE
5
740
100
AcDbEntity
8
0
100
AcDbCircle
10
-149.99999999999969
20
-10.000000000000462
30
0
40
0.50000000000000711
210
-0
220
0
230
1
0
CIRCLE
5
741
100
AcDbEntity
8
0
100
AcDbCircle
10
-149.99999999999969
20
-20.000000000000462
30
0
40
0.50000000000000711
210
-0
220
0
230
1
0
CIRCLE
5
742
100
AcDbEntity
8
0
100
AcDbCircle
10
-119.99999999999969
20
-10.000000000000462
30
0
40
0.50000000000000711
210
-0
220
0
230
1
0
CIRCLE
5
743
100
AcDbEntity
8
0
100
AcDbCircle
10
-179.99999999999969
20
-10.000000000000462
30
0
40
0.50000000000000711
210
-0
220
0
230
1
0
CIRCLE
5
744
100
AcDbEntity
8
0
100
AcDbCircle
10
-129.99999999999969
20
-10.000000000000462
30
0
40
0.50000000000000711
210
-0
220
0
230
1
0
CIRCLE
5
745
100
AcDbEntity
8
0
100
AcDbCircle
10
-179.99999999999969
20
-20.000000000000462
30
0
40
0.50000000000000711
210
-0
220
0
230
1
0
CIRCLE
5
746
100
AcDbEntity
8
0
100
AcDbCircle
10
-109.99999999999969
20
-20.000000000000462
30
0
40
0.50000000000000711
210
-0
220
0
230
1
0
CIRCLE
5
747
100
AcDbEntity
8
0
100
AcDbCircle
10
-159.99999999999969
20
-20.000000000000462
30
0
40
0.50000000000000711
210
-0
220
0
230
1
0
CIRCLE
5
748
100
AcDbEntity
8
0
100
AcDbCircle
10
-169.99999999999969
20
-20.000000000000462
30
0
40
0.50000000000000711
210
-0
220
0
230
1
0
CIRCLE
5
749
100
AcDbEntity
8
0
100
AcDbCircle
10
-139.99999999999969
20
-10.000000000000462
30
0
40
0.50000000000000711
210
-0
220
0
230
1
0
CIRCLE
5
750
100
AcDbEntity
8
0
100
AcDbCircle
10
-119.99999999999969
20
-20.000000000000462
30
0
40
0.50000000000000711
210
-0
220
0
230
1
0
CIRCLE
5
751
100
AcDbEntity
8
0
100
AcDbCircle
10
-129.99999999999969
20
-20.000000000000462
30
0
40
0.50000000000000711
210
-0
220
0
230
1
0
CIRCLE
5
752
100
AcDbEntity
8
0
100
AcDbCircle
10
-10.000000000000311
20
-199.99999999999955
30
0
40
0.50000000000000933
210
-0
220
0
230
1
0
CIRCLE
5
753
100
AcDbEntity
8
0
100
AcDbCircle
10
-10.000000000000311
20
-189.99999999999955
30
0
40
0.50000000000000044
210
-0
220
0
230
1
0
CIRCLE
5
754
100
AcDbEntity
8
0
100
AcDbCircle
10
-10.000000000000311
20
-179.99999999999955
30
0
40
0.49999999999999822
210
-0
220
0
230
1
0
CIRCLE
5
755
100
AcDbEntity
8
0
100
AcDbCircle
10
-10.000000000000311
20
-159.99999999999955
30
0
40
0.49999999999999822
210
-0
220
0
230
1
0
CIRCLE
5
756
100
AcDbEntity
8
0
100
AcDbCircle
10
-10.000000000000311
20
-149.99999999999955
30
0
40
0.50000000000000044
210
-0
220
0
230
1
0
CIRCLE
5
757
100
AcDbEntity
8
0
100
AcDbCircle
10
-10.000000000000311
20
-139.99999999999955
30
0
40
0.50000000000000933
210
-0
220
0
230
1
0
CIRCLE
5
758
100
AcDbEntity
8
0
100
AcDbCircle
10
-10.000000000000311
20
-170.00000260770321
30
0
40
0.50000000000000044
210
-0
220
0
230
1
0
CIRCLE
5
759
100
AcDbEntity
8
0
100
AcDbCircle
10
-10.000000000000311
20
-109.99999739229587
30
0
40
0.50000000000000044
210
-0
220
0
230
1
0
CIRCLE
5
760
100
AcDbEntity
8
0
100
AcDbCircle
10
-10.000000000000311
20
-119.99999999999955
30
0
40
0.49999999999999822
210
-0
220
0
230
1
0
CIRCLE
5
761
100
AcDbEntity
8
0
100
AcDbCircle
10
-10.000000000000311
20
-129.99999999999955
30
0
40
0.50000000000000044
210
-0
220
0
230
1
0
CIRCLE
5
762
100
AcDbEntity
8
0
100
AcDbCircle
10
-10.000000000000311
20
-10.000000000000462
30
0
40
0.50000000000000933
210
-0
220
0
230
1
0
CIRCLE
5
763
100
AcDbEntity
8
0
100
AcDbCircle
10
-10.000000000000311
20
-20.000000000000462
30
0
40
0.50000000000000044
210
-0
220
0
230
1
0
CIRCLE
5
764
100
AcDbEntity
8
0
100
AcDbCircle
10
-10.000000000000311
20
-30.000000000000462
30
0
40
0.49999999999999822
210
-0
220
0
230
1
0
CIRCLE
5
765
100
AcDbEntity
8
0
100
AcDbCircle
10
-10.000000000000311
20
-39.999997392296791
30
0
40
0.50000000000000044
210
-0
220
0
230
1
0
CIRCLE
5
766
100
AcDbEntity
8
0
100
AcDbCircle
10
-10.000000000000311
20
-50.000000000000462
30
0
40
0.49999999999999822
210
-0
220
0
230
1
0
CIRCLE
5
767
100
AcDbEntity
8
0
100
AcDbCircle
10
-10.000000000000311
20
-60.000000000000462
30
0
40
0.50000000000000044
210
-0
220
0
230
1
0
CIRCLE
5
768
100
AcDbEntity
8
0
100
AcDbCircle
10
-10.000000000000311
20
-70.000000000000455
30
0
40
0.50000000000000933
210
-0
220
0
230
1
0
CIRCLE
5
769
100
AcDbEntity
8
0
100
AcDbCircle
10
-10.000000000000311
20
-80.000000000000455
30
0
40
0.50000000000000044
210
-0
220
0
230
1
0
CIRCLE
5
770
100
AcDbEntity
8
0
100
AcDbCircle
10
-10.000000000000311
20
-90.000000000000455
30
0
40
0.49999999999999822
210
-0
220
0
230
1
0
CIRCLE
5
771
100
AcDbEntity
8
0
100
AcDbCircle
10
-10.000000000000311
20
-100.00000260770413
30
0
40
0.50000000000000044
210
-0
220
0
230
1
0
CIRCLE
5
772
100
AcDbEntity
8
0
100
AcDbCircle
10
-20.000000000000313
20
-199.99999999999955
30
0
40
0.50000000000000711
210
-0
220
0
230
1
0
CIRCLE
5
773
100
AcDbEntity
8
0
100
AcDbCircle
10
-199.99999999999969
20
-20.000000000000462
30
0
40
0.50000000000000711
210
-0
220
0
230
1
0
CIRCLE
5
774
100
AcDbEntity
8
0
100
AcDbCircle
10
-109.99999999999969
20
-39.999997392296791
30
0
40
0.50000000000000711
210
-0
220
0
230
1
0
CIRCLE
5
775
100
AcDbEntity
8
0
100
AcDbCircle
10
-169.99999999999969
20
-90.000000000000455
30
0
40
0.50000000000000711
210
-0
220
0
230
1
0
CIRCLE
5
776
100
AcDbEntity
8
0
100
AcDbCircle
10
-129.99999999999969
20
-139.99999999999955
30
0
40
0.50000000000000711
210
-0
220
0
230
1
0
CIRCLE
5
777
100
AcDbEntity
8
0
100
AcDbCircle
10
-179.99999999999969
20
-179.99999999999955
30
0
40
0.50000000000000711
210
-0
220
0
230
1
0
CIRCLE
5
778
100
AcDbEntity
8
0
100
AcDbCircle
10
-109.99999999999969
20
-129.99999999999955
30
0
40
0.50000000000000711
210
-0
220
0
230
1
0
CIRCLE
5
779
100
AcDbEntity
8
0
100
AcDbCircle
10
-199.99999999999969
20
-100.00000260770413
30
0
40
0.50000000000000711
210
-0
220
0
230
1
0
CIRCLE
5
780
100
AcDbEntity
8
0
100
AcDbCircle
10
-179.99999999999969
20
-30.000000000000462
30
0
40
0.50000000000000711
210
-0
220
0
230
1
0
CIRCLE
5
781
100
AcDbEntity
8
0
100
AcDbCircle
10
-199.99999999999969
20
-149.99999999999955
30
0
40
0.50000000000000711
210
-0
220
0
230
1
0
CIRCLE
5
782
100
AcDbEntity
8
0
100
AcDbCircle
10
-149.99999999999969
20
-159.99999999999955
30
0
40
0.49999999999998934
210
-0
220
0
230
1
0
CIRCLE
5
783
100
AcDbEntity
8
0
100
AcDbCircle
10
-169.99999999999969
20
-189.99999999999955
30
0
40
0.50000000000000711
210
-0
220
0
230
1
0
CIRCLE
5
784
100
AcDbEntity
8
0
100
AcDbCircle
10
-159.99999999999969
20
-159.99999999999955
30
0
40
0.50000000000000711
210
-0
220
0
230
1
0
CIRCLE
5
785
100
AcDbEntity
8
0
100
AcDbCircle
10
-159.99999999999969
20
-70.000000000000455
30
0
40
0.50000000000000711
210
-0
220
0
230
1
0
CIRCLE
5
786
100
AcDbEntity
8
0
100
AcDbCircle
10
-109.99999999999969
20
-100.00000260770413
30
0
40
0.50000000000000711
210
-0
220
0
230
1
0
CIRCLE
5
787
100
AcDbEntity
8
0
100
AcDbCircle
10
-179.99999999999969
20
-90.000000000000455
30
0
40
0.50000000000000711
210
-0
220
0
230
1
0
CIRCLE
5
788
100
AcDbEntity
8
0
100
AcDbCircle
10
-129.99999999999969
20
-100.00000260770413
30
0
40
0.50000000000000711
210
-0
220
0
230
1
0
CIRCLE
5
789
100
AcDbEntity
8
0
100
AcDbCircle
10
-119.99999999999969
20
-100.00000260770413
30
0
40
0.50000000000000711
210
-0
220
0
230
1
0
CIRCLE
5
790
100
AcDbEntity
8
0
100
AcDbCircle
10
-159.99999999999969
20
-80.000000000000455
30
0
40
0.50000000000000711
210
-0
220
0
230
1
0
CIRCLE
5
791
100
AcDbEntity
8
0
100
AcDbCircle
10
-199.99999999999969
20
-139.99999999999955
30
0
40
0.50000000000000711
210
-0
220
0
230
1
0
CIRCLE
5
792
100
AcDbEntity
8
0
100
AcDbCircle
10
-139.99999999999969
20
-179.99999999999955
30
0
40
0.49999999999998934
210
-0
220
0
230
1
0
CIRCLE
5
793
100
AcDbEntity
8
0
100
AcDbCircle
10
-159.99999999999969
20
-189.99999999999955
30
0
40
0.50000000000000711
210
-0
220
0
230
1
0
CIRCLE
5
794
100
AcDbEntity
8
0
100
AcDbCircle
10
-169.99999999999969
20
-60.000000000000462
30
0
40
0.50000000000000711
210
-0
220
0
230
1
0
CIRCLE
5
795
100
AcDbEntity
8
0
100
AcDbCircle
10
-159.99999999999969
20
-170.00000260770321
30
0
40
0.50000000000000711
210
-0
220
0
230
1
0
CIRCLE
5
796
100
AcDbEntity
8
0
100
AcDbCircle
10
-129.99999999999969
20
-80.000000000000455
30
0
40
0.50000000000000711
210
-0
220
0
230
1
0
CIRCLE
5
797
100
AcDbEntity
8
0
100
AcDbCircle
10
-139.99999999999969
20
-100.00000260770413
30
0
40
0.50000000000000711
210
-0
220
0
230
1
0
CIRCLE
5
798
100
AcDbEntity
8
0
100
AcDbCircle
10
-109.99999999999969
20
-70.000000000000455
30
0
40
0.50000000000000711
210
-0
220
0
230
1
0
CIRCLE
5
799
100
AcDbEntity
8
0
100
AcDbCircle
10
-159.99999999999969
20
-179.99999999999955
30
0
40
0.50000000000000711
210
-0
220
0
230
1
0
CIRCLE
5
800
100
AcDbEntity
8
0
100
AcDbCircle
10
-119.99999999999969
20
-170.00000260770321
30
0
40
0.50000000000000711
210
-0
220
0
230
1
0
CIRCLE
5
801
100
AcDbEntity
8
0
100
AcDbCircle
10
-109.99999999999969
20
-80.000000000000455
30
0
40
0.50000000000000711
210
-0
220
0
230
1
0
CIRCLE
5
802
100
AcDbEntity
8
0
100
AcDbCircle
10
-149.99999999999969
20
-60.000000000000462
30
0
40
0.50000000000000711
210
-0
220
0
230
1
0
CIRCLE
5
803
100
AcDbEntity
8
0
100
AcDbCircle
10
-129.99999999999969
20
-189.99999999999955
30
0
40
0.50000000000000711
210
-0
220
0
230
1
0
CIRCLE
5
804
100
AcDbEntity
8
0
100
AcDbCircle
10
-119.99999999999969
20
-39.999997392296791
30
0
40
0.50000000000000711
210
-0
220
0
230
1
0
CIRCLE
5
805
100
AcDbEntity
8
0
100
AcDbCircle
10
-109.99999999999969
20
-149.99999999999955
30
0
40
0.50000000000000711
210
-0
220
0
230
1
0
CIRCLE
5
806
100
AcDbEntity
8
0
100
AcDbCircle
10
-109.99999999999969
20
-90.000000000000455
30
0
40
0.49999999999998934
210
-0
220
0
230
1
0
CIRCLE
5
807
100
AcDbEntity
8
0
100
AcDbCircle
10
-109.99999999999969
20
-119.99999999999955
30
0
40
0.49999999999998934
210
-0
220
0
230
1
0
CIRCLE
5
808
100
AcDbEntity
8
0
100
AcDbCircle
10
-159.99999999999969
20
-199.99999999999955
30
0
40
0.50000000000000711
210
-0
220
0
230
1
0
CIRCLE
5
809
100
AcDbEntity
8
0
100
AcDbCircle
10
-139.99999999999969
20
-50.000000000000462
30
0
40
0.49999999999998934
210
-0
220
0
230
1
0
CIRCLE
5
810
100
AcDbEntity
8
0
100
AcDbCircle
10
-149.99999999999969
20
-80.000000000000455
30
0
40
0.50000000000000711
210
-0
220
0
230
1
0
CIRCLE
5
811
100
AcDbEntity
8
0
100
AcDbCircle
10
-129.99999999999969
20
-149.99999999999955
30
0
40
0.50000000000000711
210
-0
220
0
230
1
0
CIRCLE
5
812
100
AcDbEntity
8
0
100
AcDbCircle
10
-139.99999999999969
20
-60.000000000000462
30
0
40
0.50000000000000711
210
-0
220
0
230
1
0
CIRCLE
5
813
100
AcDbEntity
8
0
100
AcDbCircle
10
-119.99999999999969
20
-139.99999999999955
30
0
40
0.50000000000000711
210
-0
220
0
230
1
0
CIRCLE
5
814
100
AcDbEntity
8
0
100
AcDbCircle
10
-109.99999999999969
20
-189.99999999999955
30
0
40
0.50000000000000711
210
-0
220
0
230
1
0
CIRCLE
5
815
100
AcDbEntity
8
0
100
AcDbCircle
10
-139.99999999999969
20
-70.000000000000455
30
0
40
0.50000000000000711
210
-0
220
0
230
1
0
CIRCLE
5
816
100
AcDbEntity
8
0
100
AcDbCircle
10
-199.99999999999969
20
-39.999997392296791
30
0
40
0.50000000000000711
210
-0
220
0
230
1
0
CIRCLE
5
817
100
AcDbEntity
8
0
100
AcDbCircle
10
-149.99999999999969
20
-90.000000000000455
30
0
40
0.49999999999998934
210
-0
220
0
230
1
0
CIRCLE
5
818
100
AcDbEntity
8
0
100
AcDbCircle
10
-169.99999999999969
20
-179.99999999999955
30
0
40
0.50000000000000711
210
-0
220
0
230
1
0
CIRCLE
5
819
100
AcDbEntity
8
0
100
AcDbCircle
10
-159.99999999999969
20
-100.00000260770413
30
0
40
0.50000000000000711
210
-0
220
0
230
1
0
CIRCLE
5
820
100
AcDbEntity
8
0
100
AcDbCircle
10
-169.99999999999969
20
-50.000000000000462
30
0
40
0.50000000000000711
210
-0
220
0
230
1
0
CIRCLE
5
821
100
AcDbEntity
8
0
100
AcDbCircle
10
-139.99999999999969
20
-90.000000000000455
30
0
40
0.49999999999998934
210
-0
220
0
230
1
0
CIRCLE
5
822
100
AcDbEntity
8
0
100
AcDbCircle
10
-119.99999999999969
20
-90.000000000000455
30
0
40
0.49999999999998934
210
-0
220
0
230
1
0
CIRCLE
5
823
100
AcDbEntity
8
0
100
AcDbCircle
10
-149.99999999999969
20
-50.000000000000462
30
0
40
0.49999999999998934
210
-0
220
0
230
1
0
CIRCLE
5
824
100
AcDbEntity
8
0
100
AcDbCircle
10
-149.99999999999969
20
-139.99999999999955
30
0
40
0.50000000000000711
210
-0
220
0
230
1
0
CIRCLE
5
825
100
AcDbEntity
8
0
100
AcDbCircle
10
-179.99999999999969
20
-50.000000000000462
30
0
40
0.50000000000000711
210
-0
220
0
230
1
0
CIRCLE
5
826
100
AcDbEntity
8
0
100
AcDbCircle
10
-119.99999999999969
20
-70.000000000000455
30
0
40
0.50000000000000711
210
-0
220
0
230
1
0
CIRCLE
5
827
100
AcDbEntity
8
0
100
AcDbCircle
10
-109.99999999999969
20
-109.99999739229587
30
0
40
0.50000000000000711
210
-0
220
0
230
1
0
CIRCLE
5
828
100
AcDbEntity
8
0
100
AcDbCircle
10
-149.99999999999969
20
-179.99999999999955
30
0
40
0.49999999999998934
210
-0
220
0
230
1
0
CIRCLE
5
829
100
AcDbEntity
8
0
100
AcDbCircle
10
-169.99999999999969
20
-39.999997392296791
30
0
40
0.50000000000000711
210
-0
220
0
230
1
0
CIRCLE
5
830
100
AcDbEntity
8
0
100
AcDbCircle
10
-199.99999999999969
20
-119.99999999999955
30
0
40
0.50000000000000711
210
-0
220
0
230
1
0
CIRCLE
5
831
100
AcDbEntity
8
0
100
AcDbCircle
10
-149.99999999999969
20
-70.000000000000455
30
0
40
0.50000000000000711
210
-0
220
0
230
1
0
CIRCLE
5
832
100
AcDbEntity
8
0
100
AcDbCircle
10
-129.99999999999969
20
-179.99999999999955
30
0
40
0.49999999999998934
210
-0
220
0
230
1
0
CIRCLE
5
833
100
AcDbEntity
8
0
100
AcDbCircle
10
-159.99999999999969
20
-39.999997392296791
30
0
40
0.50000000000000711
210
-0
220
0
230
1
0
CIRCLE
5
834
100
AcDbEntity
8
0
100
AcDbCircle
10
-199.99999999999969
20
-30.000000000000462
30
0
40
0.50000000000000711
210
-0
220
0
230
1
0
CIRCLE
5
835
100
AcDbEntity
8
0
100
AcDbCircle
10
-199.99999999999969
20
-50.000000000000462
30
0
40
0.50000000000000711
210
-0
220
0
230
1
0
CIRCLE
5
836
100
AcDbEntity
8
0
100
AcDbCircle
10
-169.99999999999969
20
-70.000000000000455
30
0
40
0.50000000000000711
210
-0
220
0
230
1
0
CIRCLE
5
837
100
AcDbEntity
8
0
100
AcDbCircle
10
-139.99999999999969
20
-30.000000000000462
30
0
40
0.49999999999998934
210
-0
220
0
230
1
0
CIRCLE
5
838
100
AcDbEntity
8
0
100
AcDbCircle
10
-119.99999999999969
20
-119.99999999999955
30
0
40
0.49999999999998934
210
-0
220
0
230
1
0
CIRCLE
5
839
100
AcDbEntity
8
0
100
AcDbCircle
10
-169.99999999999969
20
-100.00000260770413
30
0
40
0.50000000000000711
210
-0
220
0
230
1
0
CIRCLE
5
840
100
AcDbEntity
8
0
100
AcDbCircle
10
-119.99999999999969
20
-60.000000000000462
30
0
40
0.50000000000000711
210
-0
220
0
230
1
0
CIRCLE
5
841
100
AcDbEntity
8
0
100
AcDbCircle
10
-139.99999999999969
20
-80.000000000000455
30
0
40
0.50000000000000711
210
-0
220
0
230
1
0
CIRCLE
5
842
100
AcDbEntity
8
0
100
AcDbCircle
10
-129.99999999999969
20
-109.99999739229587
30
0
40
0.50000000000000711
210
-0
220
0
230
1
0
CIRCLE
5
843
100
AcDbEntity
8
0
100
AcDbCircle
10
-119.99999999999969
20
-80.000000000000455
30
0
40
0.50000000000000711
210
-0
220
0
230
1
0
CIRCLE
5
844
100
AcDbEntity
8
0
100
AcDbCircle
10
-149.99999999999969
20
-30.000000000000462
30
0
40
0.49999999999998934
210
-0
220
0
230
1
0
CIRCLE
5
845
100
AcDbEntity
8
0
100
AcDbCircle
10
-199.99999999999969
20
-60.000000000000462
30
0
40
0.50000000000000711
210
-0
220
0
230
1
0
CIRCLE
5
846
100
AcDbEntity
8
0
100
AcDbCircle
10
-199.99999999999969
20
-80.000000000000455
30
0
40
0.50000000000000711
210
-0
220
0
230
1
0
CIRCLE
5
847
100
AcDbEntity
8
0
100
AcDbCircle
10
-169.99999999999969
20
-119.99999999999955
30
0
40
0.50000000000000711
210
-0
220
0
230
1
0
CIRCLE
5
848
100
AcDbEntity
8
0
100
AcDbCircle
10
-199.99999999999969
20
-170.00000260770321
30
0
40
0.50000000000000711
210
-0
220
0
230
1
0
CIRCLE
5
849
100
AcDbEntity
8
0
100
AcDbCircle
10
-199.99999999999969
20
-179.99999999999955
30
0
40
0.50000000000000711
210
-0
220
0
230
1
0
CIRCLE
5
850
100
AcDbEntity
8
0
100
AcDbCircle
10
-199.99999999999969
20
-189.99999999999955
30
0
40
0.50000000000000711
210
-0
220
0
230
1
0
CIRCLE
5
851
100
AcDbEntity
8
0
100
AcDbCircle
10
-159.99999999999969
20
-30.000000000000462
30
0
40
0.50000000000000711
210
-0
220
0
230
1
0
CIRCLE
5
852
100
AcDbEntity
8
0
100
AcDbCircle
10
-159.99999999999969
20
-50.000000000000462
30
0
40
0.50000000000000711
210
-0
220
0
230
1
0
CIRCLE
5
853
100
AcDbEntity
8
0
100
AcDbCircle
10
-139.99999999999969
20
-139.99999999999955
30
0
40
0.50000000000000711
210
-0
220
0
230
1
0
CIRCLE
5
854
100
AcDbEntity
8
0
100
AcDbCircle
10
-129.99999999999969
20
-50.000000000000462
30
0
40
0.49999999999998934
210
-0
220
0
230
1
0
CIRCLE
5
855
100
AcDbEntity
8
0
100
AcDbCircle
10
-119.99999999999969
20
-30.000000000000462
30
0
40
0.49999999999998934
210
-0
220
0
230
1
0
CIRCLE
5
856
100
AcDbEntity
8
0
100
AcDbCircle
10
-179.99999999999969
20
-70.000000000000455
30
0
40
0.50000000000000711
210
-0
220
0
230
1
0
CIRCLE
5
857
100
AcDbEntity
8
0
100
AcDbCircle
10
-149.99999999999969
20
-170.00000260770321
30
0
40
0.50000000000000711
210
-0
220
0
230
1
0
CIRCLE
5
858
100
AcDbEntity
8
0
100
AcDbCircle
10
-129.99999999999969
20
-70.000000000000455
30
0
40
0.50000000000000711
210
-0
220
0
230
1
0
CIRCLE
5
859
100
AcDbEntity
8
0
100
AcDbCircle
10
-199.99999999999969
20
-90.000000000000455
30
0
40
0.50000000000000711
210
-0
220
0
230
1
0
CIRCLE
5
860
100
AcDbEntity
8
0
100
AcDbCircle
10
-159.99999999999969
20
-139.99999999999955
30
0
40
0.50000000000000711
210
-0
220
0
230
1
0
CIRCLE
5
861
100
AcDbEntity
8
0
100
AcDbCircle
10
-199.99999999999969
20
-109.99999739229587
30
0
40
0.50000000000000711
210
-0
220
0
230
1
0
CIRCLE
5
862
100
AcDbEntity
8
0
100
AcDbCircle
10
-199.99999999999969
20
-159.99999999999955
30
0
40
0.50000000000000711
210
-0
220
0
230
1
0
CIRCLE
5
863
100
AcDbEntity
8
0
100
AcDbCircle
10
-129.99999999999969
20
-60.000000000000462
30
0
40
0.50000000000000711
210
-0
220
0
230
1
0
CIRCLE
5
864
100
AcDbEntity
8
0
100
AcDbCircle
10
-169.99999999999969
20
-30.000000000000462
30
0
40
0.50000000000000711
210
-0
220
0
230
1
0
CIRCLE
5
865
100
AcDbEntity
8
0
100
AcDbCircle
10
-149.99999999999969
20
-189.99999999999955
30
0
40
0.50000000000000711
210
-0
220
0
230
1
0
CIRCLE
5
866
100
AcDbEntity
8
0
100
AcDbCircle
10
-129.99999999999969
20
-170.00000260770321
30
0
40
0.50000000000000711
210
-0
220
0
230
1
0
CIRCLE
5
867
100
AcDbEntity
8
0
100
AcDbCircle
10
-139.99999999999969
20
-39.999997392296791
30
0
40
0.50000000000000711
210
-0
220
0
230
1
0
CIRCLE
5
868
100
AcDbEntity
8
0
100
AcDbCircle
10
-169.99999999999969
20
-80.000000000000455
30
0
40
0.50000000000000711
210
-0
220
0
230
1
0
CIRCLE
5
869
100
AcDbEntity
8
0
100
AcDbCircle
10
-199.99999999999969
20
-70.000000000000455
30
0
40
0.50000000000000711
210
-0
220
0
230
1
0
CIRCLE
5
870
100
AcDbEntity
8
0
100
AcDbCircle
10
-179.99999999999969
20
-109.99999739229587
30
0
40
0.50000000000000711
210
-0
220
0
230
1
0
CIRCLE
5
871
100
AcDbEntity
8
0
100
AcDbCircle
10
-189.99999999999969
20
-100.00000260770413
30
0
40
0.50000000000000711
210
-0
220
0
230
1
0
CIRCLE
5
872
100
AcDbEntity
8
0
100
AcDbCircle
10
-189.99999999999969
20
-90.000000000000455
30
0
40
0.50000000000000711
210
-0
220
0
230
1
0
CIRCLE
5
873
100
AcDbEntity
8
0
100
AcDbCircle
10
-159.99999999999969
20
-149.99999999999955
30
0
40
0.50000000000000711
210
-0
220
0
230
1
0
CIRCLE
5
874
100
AcDbEntity
8
0
100
AcDbCircle
10
-169.99999999999969
20
-109.99999739229587
30
0
40
0.50000000000000711
210
-0
220
0
230
1
0
CIRCLE
5
875
100
AcDbEntity
8
0
100
AcDbCircle
10
-139.99999999999969
20
-119.99999999999955
30
0
40
0.49999999999998934
210
-0
220
0
230
1
0
CIRCLE
5
876
100
AcDbEntity
8
0
100
AcDbCircle
10
-139.99999999999969
20
-109.99999739229587
30
0
40
0.50000000000000711
210
-0
220
0
230
1
0
CIRCLE
5
877
100
AcDbEntity
8
0
100
AcDbCircle
10
-189.99999999999969
20
-189.99999999999955
30
0
40
0.50000000000000711
210
-0
220
0
230
1
0
CIRCLE
5
878
100
AcDbEntity
8
0
100
AcDbCircle
10
-189.99999999999969
20
-80.000000000000455
30
0
40
0.50000000000000711
210
-0
220
0
230
1
0
CIRCLE
5
879
100
AcDbEntity
8
0
100
AcDbCircle
10
-169.99999999999969
20
-149.99999999999955
30
0
40
0.50000000000000711
210
-0
220
0
230
1
0
CIRCLE
5
880
100
AcDbEntity
8
0
100
AcDbCircle
10
-159.99999999999969
20
-109.99999739229587
30
0
40
0.50000000000000711
210
-0
220
0
230
1
0
CIRCLE
5
881
100
AcDbEntity
8
0
100
AcDbCircle
10
-139.99999999999969
20
-149.99999999999955
30
0
40
0.50000000000000711
210
-0
220
0
230
1
0
CIRCLE
5
882
100
AcDbEntity
8
0
100
AcDbCircle
10
-179.99999999999969
20
-80.000000000000455
30
0
40
0.50000000000000711
210
-0
220
0
230
1
0
CIRCLE
5
883
100
AcDbEntity
8
0
100
AcDbCircle
10
-189.99999999999969
20
-159.99999999999955
30
0
40
0.50000000000000711
210
-0
220
0
230
1
0
CIRCLE
5
884
100
AcDbEntity
8
0
100
AcDbCircle
10
-179.99999999999969
20
-39.999997392296791
30
0
40
0.50000000000000711
210
-0
220
0
230
1
0
CIRCLE
5
885
100
AcDbEntity
8
0
100
AcDbCircle
10
-179.99999999999969
20
-119.99999999999955
30
0
40
0.50000000000000711
210
-0
220
0
230
1
0
CIRCLE
5
886
100
AcDbEntity
8
0
100
AcDbCircle
10
-149.99999999999969
20
-39.999997392296791
30
0
40
0.50000000000000711
210
-0
220
0
230
1
0
CIRCLE
5
887
100
AcDbEntity
8
0
100
AcDbCircle
10
-169.99999999999969
20
-129.99999999999955
30
0
40
0.50000000000000711
210
-0
220
0
230
1
0
CIRCLE
5
888
100
AcDbEntity
8
0
100
AcDbCircle
10
-189.99999999999969
20
-60.000000000000462
30
0
40
0.50000000000000711
210
-0
220
0
230
1
0
CIRCLE
5
889
100
AcDbEntity
8
0
100
AcDbCircle
10
-189.99999999999969
20
-129.99999999999955
30
0
40
0.50000000000000711
210
-0
220
0
230
1
0
CIRCLE
5
890
100
AcDbEntity
8
0
100
AcDbCircle
10
-189.99999999999969
20
-119.99999999999955
30
0
40
0.50000000000000711
210
-0
220
0
230
1
0
CIRCLE
5
891
100
AcDbEntity
8
0
100
AcDbCircle
10
-189.99999999999969
20
-170.00000260770321
30
0
40
0.50000000000000711
210
-0
220
0
230
1
0
CIRCLE
5
892
100
AcDbEntity
8
0
100
AcDbCircle
10
-189.99999999999969
20
-50.000000000000462
30
0
40
0.50000000000000711
210
-0
220
0
230
1
0
CIRCLE
5
893
100
AcDbEntity
8
0
100
AcDbCircle
10
-189.99999999999969
20
-149.99999999999955
30
0
40
0.50000000000000711
210
-0
220
0
230
1
0
CIRCLE
5
894
100
AcDbEntity
8
0
100
AcDbCircle
10
-189.99999999999969
20
-199.99999999999955
30
0
40
0.50000000000000711
210
-0
220
0
230
1
0
CIRCLE
5
895
100
AcDbEntity
8
0
100
AcDbCircle
10
-149.99999999999969
20
-129.99999999999955
30
0
40
0.50000000000000711
210
-0
220
0
230
1
0
CIRCLE
5
896
100
AcDbEntity
8
0
100
AcDbCircle
10
-149.99999999999969
20
-109.99999739229587
30
0
40
0.50000000000000711
210
-0
220
0
230
1
0
CIRCLE
5
897
100
AcDbEntity
8
0
100
AcDbCircle
10
-149.99999999999969
20
-119.99999999999955
30
0
40
0.49999999999998934
210
-0
220
0
230
1
0
CIRCLE
5
898
100
AcDbEntity
8
0
100
AcDbCircle
10
-189.99999999999969
20
-139.99999999999955
30
0
40
0.50000000000000711
210
-0
220
0
230
1
0
CIRCLE
5
899
100
AcDbEntity
8
0
100
AcDbCircle
10
-139.99999999999969
20
-129.99999999999955
30
0
40
0.50000000000000711
210
-0
220
0
230
1
0
CIRCLE
5
900
100
AcDbEntity
8
0
100
AcDbCircle
10
-159.99999999999969
20
-119.99999999999955
30
0
40
0.50000000000000711
210
-0
220
0
230
1
0
CIRCLE
5
901
100
AcDbEntity
8
0
100
AcDbCircle
10
-199.99999999999969
20
-199.99999999999955
30
0
40
0.50000000000000711
210
-0
220
0
230
1
0
ENDSEC
0
SECTION
2
OBJECTS
0
DICTIONARY
5
C
100
AcDbDictionary
3
ACAD_GROUP
350
D
3
ACAD_MLINESTYLE
350
17
0
DICTIONARY
5
D
100
AcDbDictionary
0
DICTIONARY
5
1A
330
C
100
AcDbDictionary
0
DICTIONARY
5
17
100
AcDbDictionary
0
ENDSEC
0
EOF
